<svg width="68" height="68" viewBox="0 0 68 68" fill="none" xmlns="http://www.w3.org/2000/svg">
<g clip-path="url(#clip0_2_274)">
<path d="M24.5872 26.98C20.655 26.98 17.4558 30.5044 17.4558 34.8365C17.4558 39.1686 20.655 42.693 24.5872 42.693C28.5195 42.693 31.7188 39.1686 31.7188 34.8365C31.7188 30.5044 28.5195 26.98 24.5872 26.98ZM24.5872 38.7087C22.852 38.7087 21.4402 36.9716 21.4402 34.8365C21.4402 32.7014 22.852 30.9644 24.5872 30.9644C26.3225 30.9644 27.7344 32.7014 27.7344 34.8365C27.7344 36.9716 26.3225 38.7087 24.5872 38.7087Z" fill="white"/>
<path d="M43.4129 26.98C39.4806 26.98 36.2812 30.5044 36.2812 34.8365C36.2812 39.1686 39.4806 42.693 43.4129 42.693C47.3451 42.693 50.5443 39.1686 50.5443 34.8365C50.5443 30.5044 47.3451 26.98 43.4129 26.98ZM43.4129 38.7087C41.6776 38.7087 40.2656 36.9716 40.2656 34.8365C40.2656 32.7014 41.6776 30.9644 43.4129 30.9644C45.1481 30.9644 46.5599 32.7014 46.5599 34.8365C46.5599 36.9716 45.1481 38.7087 43.4129 38.7087Z" fill="white"/>
<path d="M67.997 48.155C67.95 47.3127 66.7586 27.3887 59.1927 15.4702C59.038 15.2265 58.832 15.0192 58.5893 14.863C49.234 8.83878 42.8616 8.85604 42.595 8.85498C41.8222 8.86521 41.1568 9.31465 40.8351 9.9641L37.6212 16.1231C36.424 16.0448 35.2153 16.0041 34 16.0041C32.7851 16.0041 31.5762 16.0448 30.379 16.1231L27.1687 9.97127C26.8485 9.3181 26.1808 8.86534 25.4051 8.85511C25.1369 8.85352 18.7653 8.83944 9.41101 14.8632C9.16836 15.0195 8.96237 15.2267 8.80764 15.4704C1.24158 27.3887 0.0501169 47.3127 0.00310125 48.155C-0.0263831 48.6831 0.155304 49.2012 0.508187 49.5952C0.859078 49.9867 9.19426 59.1456 20.7153 59.1456C20.7669 59.1456 20.8199 59.1454 20.8715 59.1451C21.477 59.1407 22.0474 58.8613 22.4221 58.3859L27.7363 51.6419C29.7774 51.8749 31.8738 51.9963 34 51.9963C36.1264 51.9963 38.2228 51.8749 40.2637 51.6419L45.578 58.3859C45.9526 58.8613 46.5231 59.1407 47.1286 59.1451C47.181 59.1455 47.2324 59.1456 47.2847 59.1456C58.8048 59.1456 67.1413 49.9867 67.4919 49.5952C67.8447 49.2012 68.0263 48.6831 67.997 48.155ZM48.095 55.1425L44.7726 50.926C49.8301 49.8855 54.3695 48.1152 57.9127 45.7379C58.8264 45.125 59.0703 43.8873 58.4572 42.9737C57.8444 42.06 56.6063 41.8159 55.693 42.4292C50.4046 45.9773 42.4978 48.012 34 48.012C25.5027 48.012 17.5958 45.9773 12.3071 42.4296C11.3932 41.8167 10.1558 42.0606 9.54289 42.9742C8.92996 43.888 9.1738 45.1255 10.0876 45.7385C13.631 48.1153 18.1703 49.8858 23.2276 50.9261L19.9053 55.1424C12.1048 54.7805 5.89719 49.3255 4.04352 47.5152C4.35298 43.655 5.95868 27.7344 11.941 17.9752C17.8154 14.2671 22.2485 13.2358 24.2285 12.9492L26.1187 16.5711C21.6746 17.22 17.5111 18.4126 13.9646 20.0823C12.9692 20.5508 12.5422 21.7378 13.0108 22.7334C13.4795 23.7287 14.6664 24.1555 15.6617 23.6872C20.728 21.302 27.2407 19.9885 34 19.9885C40.7598 19.9885 47.2727 21.3023 52.3387 23.6877C52.6129 23.8168 52.9015 23.8781 53.186 23.8781C53.9335 23.8781 54.6501 23.4551 54.9897 22.734C55.4583 21.7387 55.0313 20.5516 54.0359 20.0829C50.4892 18.4131 46.3257 17.2203 41.8813 16.5714L43.7715 12.9495C45.7513 13.2361 50.1846 14.2674 56.0593 17.9755C62.0348 27.7244 63.6458 43.6617 63.9564 47.5188C62.1075 49.3329 55.9275 54.7834 48.095 55.1425Z" fill="white"/>
</g>
<defs>
<clipPath id="clip0_2_274">
<rect width="68" height="68" fill="white"/>
</clipPath>
</defs>
</svg>
