<svg width="54" height="40" viewBox="0 0 54 40" fill="none" xmlns="http://www.w3.org/2000/svg">
<path d="M19.5252 14.4253C16.4026 14.4253 13.8621 17.2241 13.8621 20.6643C13.8621 24.1045 16.4026 26.9033 19.5252 26.9033C22.6479 26.9033 25.1886 24.1045 25.1886 20.6643C25.1886 17.2241 22.6479 14.4253 19.5252 14.4253ZM19.5252 23.7392C18.1473 23.7392 17.0261 22.3598 17.0261 20.6643C17.0261 18.9688 18.1473 17.5894 19.5252 17.5894C20.9033 17.5894 22.0245 18.9688 22.0245 20.6643C22.0245 22.3598 20.9033 23.7392 19.5252 23.7392Z" fill="white"/>
<path d="M34.4749 14.4253C31.3522 14.4253 28.8115 17.2241 28.8115 20.6643C28.8115 24.1045 31.3522 26.9033 34.4749 26.9033C37.5975 26.9033 40.138 24.1045 40.138 20.6643C40.138 17.2241 37.5975 14.4253 34.4749 14.4253ZM34.4749 23.7392C33.0968 23.7392 31.9756 22.3598 31.9756 20.6643C31.9756 18.9688 33.0968 17.5894 34.4749 17.5894C35.8528 17.5894 36.974 18.9688 36.974 20.6643C36.974 22.3598 35.8528 23.7392 34.4749 23.7392Z" fill="white"/>
<path d="M53.9976 31.2406C53.9603 30.5717 53.0142 14.7497 47.006 5.28503C46.8831 5.0915 46.7195 4.92686 46.5268 4.80283C39.0976 0.0188709 34.0371 0.032582 33.8254 0.0317383C33.2117 0.0398594 32.6833 0.396766 32.4279 0.912508L29.8756 5.80352C28.9249 5.74129 27.9651 5.70902 27 5.70902C26.0352 5.70902 25.0752 5.74129 24.1245 5.80352L21.5751 0.918203C21.3209 0.399508 20.7907 0.0399648 20.1746 0.0318437C19.9617 0.0305781 14.9018 0.0193984 7.47345 4.80293C7.28076 4.92707 7.11717 5.0916 6.9943 5.28514C0.985959 14.7497 0.0397987 30.5717 0.00246276 31.2406C-0.0209513 31.6599 0.12333 32.0714 0.40356 32.3843C0.682209 32.6952 7.30132 39.9684 16.4504 39.9684C16.4913 39.9684 16.5334 39.9682 16.5744 39.968C17.0553 39.9645 17.5083 39.7426 17.8058 39.3651L22.0259 34.0096C23.6468 34.1946 25.3116 34.291 27 34.291C28.6886 34.291 30.3534 34.1946 31.9741 34.0096L36.1943 39.3651C36.4918 39.7426 36.9448 39.9645 37.4256 39.968C37.4673 39.9683 37.5081 39.9684 37.5496 39.9684C46.6979 39.9684 53.3181 32.6952 53.5965 32.3843C53.8766 32.0714 54.0209 31.6599 53.9976 31.2406ZM38.1931 36.7895L35.5547 33.4411C39.571 32.6148 43.1758 31.2089 45.9895 29.3211C46.7151 28.8344 46.9087 27.8515 46.4219 27.126C45.9353 26.4004 44.9521 26.2066 44.2268 26.6936C40.0272 29.5112 33.7482 31.127 27 31.127C20.2521 31.127 13.9732 29.5112 9.7733 26.6939C9.04757 26.2072 8.06491 26.4009 7.57818 27.1264C7.09144 27.8521 7.28508 28.8348 8.0107 29.3216C10.8246 31.209 14.4293 32.615 18.4455 33.4412L15.8072 36.7894C9.61267 36.502 4.68306 32.1701 3.21103 30.7325C3.45677 27.6671 4.73189 15.0242 9.48252 7.27428C14.1475 4.32959 17.6679 3.51063 19.2403 3.28302L20.7413 6.15926C17.2122 6.67458 13.9059 7.62159 11.0895 8.94754C10.2991 9.31963 9.95998 10.2622 10.3321 11.0528C10.7043 11.8432 11.6468 12.1822 12.4372 11.8103C16.4604 9.91616 21.6323 8.87308 27 8.87308C32.3681 8.87308 37.5401 9.91638 41.5631 11.8107C41.7808 11.9132 42.01 11.9618 42.2359 11.9618C42.8295 11.9618 43.3986 11.6259 43.6683 11.0533C44.0404 10.2629 43.7013 9.32027 42.9108 8.94807C40.0944 7.62201 36.7881 6.67479 33.2587 6.15947L34.7597 3.28323C36.3319 3.51084 39.8525 4.3298 44.5177 7.27449C49.2629 15.0163 50.5422 27.6724 50.7889 30.7354C49.3207 32.176 44.413 36.5043 38.1931 36.7895Z" fill="white"/>
</svg>
