<svg width="53" height="53" viewBox="0 0 53 53" fill="none" xmlns="http://www.w3.org/2000/svg">
<path d="M50.9993 2.00163C49.6651 0.667008 48.0661 0 46.2034 0H6.79807C4.9347 0 3.33625 0.66725 2.00163 2.00163C0.667252 3.33564 0.000244141 4.93434 0.000244141 6.79734V46.2023C0.000244141 48.0651 0.667131 49.6641 2.00163 50.9982C3.33625 52.3325 4.93506 53 6.79807 53H46.2029C48.0653 53 49.6647 52.3325 50.999 50.9982C52.3336 49.6641 53 48.0651 53 46.2023V6.79734C52.9999 4.93397 52.3336 3.33613 50.9993 2.00163ZM19.0305 19.0984C21.1121 17.0859 23.6138 16.0791 26.5353 16.0791C29.4794 16.0791 31.9923 17.0859 34.0744 19.0984C36.1566 21.1112 37.197 23.5441 37.197 26.3964C37.197 29.2484 36.1566 31.6814 34.0744 33.6936C31.9923 35.707 29.4802 36.7136 26.5353 36.7136C23.6139 36.7136 21.1124 35.7061 19.0305 33.6936C16.9483 31.6811 15.9074 29.2484 15.9074 26.3964C15.9074 23.5441 16.9483 21.1114 19.0305 19.0984ZM46.997 44.7882C46.997 45.3858 46.7894 45.8859 46.3757 46.2887C45.9608 46.6912 45.467 46.8925 44.8914 46.8925H8.00591C7.40791 46.8925 6.9072 46.6912 6.50499 46.2887C6.10218 45.8867 5.90095 45.3858 5.90095 44.7882V22.428H10.766C10.3062 23.8774 10.0762 25.3844 10.0762 26.9483C10.0762 31.3659 11.6862 35.1321 14.9067 38.2497C18.1275 41.3661 22.0035 42.925 26.5352 42.925C29.5256 42.925 32.2859 42.2116 34.8171 40.7855C37.3475 39.3585 39.3475 37.421 40.8208 34.9708C42.2932 32.5208 43.0293 29.8465 43.0293 26.9484C43.0293 25.3845 42.7985 23.8779 42.3386 22.4281H46.9973V44.7883H46.997V44.7882ZM46.997 13.9742C46.997 14.6413 46.7671 15.205 46.3062 15.665C45.8464 16.1253 45.2831 16.3552 44.6156 16.3552H38.6119C37.9451 16.3552 37.381 16.1252 36.9211 15.665C36.4611 15.205 36.2313 14.6413 36.2313 13.9742V8.28134C36.2313 7.63717 36.4611 7.07942 36.9211 6.60772C37.3811 6.13626 37.9452 5.90022 38.6119 5.90022H44.6156C45.2831 5.90022 45.8465 6.13613 46.3062 6.60772C46.7669 7.07942 46.997 7.63717 46.997 8.28134V13.9742Z" fill="white"/>
</svg>
