<?xml version="1.0" encoding="UTF-8"?>
<svg id="uuid-cb50ccc8-0f17-4bde-b355-39f1c73eebf7" data-name="Layer 1" xmlns="http://www.w3.org/2000/svg" width="77" height="1805.71" viewBox="0 0 77 1805.71">
  <path d="M37.36,826.04c-5.65,5.59-4.39,15.73,.47,20.73,4.32,4.44,10.13,3.8,15.96-1.76,2.92-2.79,4.64-9.91,5.36-20.4-3.45-1.47-7.24-2.22-10.77-2.22-4.47,0-8.53,1.2-11.01,3.65Z" fill="none"/>
  <path d="M39.74,1073c2.49-19.95,5.26-42.21,6.76-70.54-.33-.02-.66-.02-1-.06-1.5,28.3-4.27,50.54-6.75,70.48-4.27,34.23-7.62,61.12-2.19,99.28,.34-.02,.67-.04,1.01-.04-5.43-38.1-2.09-64.94,2.18-99.11Z" fill="#fff"/>
  <path d="M66,862.29c.95-1.89,1.96-3.89,3.03-6.05,6.14-12.39,4.46-23.26-4.6-29.81-1.3-.94-2.71-1.75-4.2-2.43,.96-14.37,.06-34.3-1.89-56.54-.35,.04-.71,.05-1.06,.07,1.99,22.82,2.79,42.2,1.95,56.03-8.11-3.32-17.92-2.82-22.56,1.76-6.05,5.98-4.72,16.81,.46,22.14,4.68,4.82,11.17,4.17,17.36-1.73,3.11-2.97,4.9-10.3,5.67-20.67,1.3,.62,2.54,1.34,3.69,2.17,5.07,3.66,12.38,12.25,4.29,28.55-1.07,2.15-2.08,4.15-3.03,6.04-11.64,23.06-15.14,30.01-18.17,104.47,.33,0,.67,0,1,.01,3.01-74.22,6.49-81.13,18.06-104.04Zm-12.21-17.27c-5.83,5.56-11.64,6.2-15.96,1.76-4.86-5-6.12-15.14-.47-20.73,2.48-2.45,6.54-3.65,11.01-3.65,3.54,0,7.32,.75,10.77,2.22-.72,10.48-2.44,17.61-5.36,20.4Z" fill="#fff"/>
  <path d="M44.71,1208.69c-.13-.55-.25-1.09-.39-1.63-.31,.12-.63,.24-.95,.35,.12,.51,.23,1.01,.36,1.52,7.56,31.22,20.74,93.09,24.01,156.63,1.53,29.7,.69,55.57-2.48,77.5,.29,.14,.58,.26,.86,.41,9.63-65.98-2.85-158.11-21.42-234.78Z" fill="#fff"/>
  <path d="M47.44,1713.33c-1.08-10.13-2.1-19.71-2.72-28.2-.52-7.16-2.5-17.33-4.79-29.11-8.38-43.11-21.05-108.26,8.08-155.92,4.06-6.65,7.47-14.25,10.3-22.64-.34,.01-.67,.03-1.01,.02-2.84,8.3-6.22,15.68-10.14,22.1-29.33,47.99-16.62,113.37-8.2,156.63,2.29,11.75,4.26,21.9,4.77,29,.62,8.51,1.64,18.09,2.72,28.23,.77,7.26,1.57,14.75,2.29,22.38,.33-.02,.67-.03,1-.04-.72-7.66-1.52-15.18-2.29-22.45Z" fill="#fff"/>
  <path d="M49.89,1805.6l.99,.11c1.17-11.01,1.43-22.41,1.16-33.87-.33,.04-.67,.07-1,.09,.27,11.4,0,22.73-1.15,33.67Z" fill="#fff"/>
  <path d="M35.79,170.98c3.29-28.94,8.3-53.79,11.63-68.48-.34,0-.68-.03-1.01-.05-3.34,14.73-8.33,39.53-11.61,68.39-5.81,51.07-3.41,88.87,1.77,116.09,.33-.05,.65-.08,.98-.11-7.52-39.45-5.49-82.95-1.75-115.85Z" fill="#fff"/>
  <path d="M35.2,603.36c-8.89-50.55-5.41-84.14,1.79-106.82-.27-.13-.55-.24-.81-.38-7.8,23.92-10.74,57.53-1.97,107.37,7.61,43.28,14.6,88.53,19.3,128.09,.34-.05,.68-.11,1.02-.15-6-50.09-14.91-102.95-19.34-128.12Z" fill="#fff"/>
  <path d="M60.02,456.33c18.7-21.64,21.56-47.4-12.81-135.16-.3,.14-.61,.27-.92,.4,37.29,95.26,28.9,115.68,12.97,134.11-2.21,2.56-4.43,5.3-6.61,8.27,.26,.13,.53,.26,.78,.41,2.43-3.21,4.7-5.84,6.58-8.02Z" fill="#fff"/>
  <path d="M8.97,9.31c-.33,.3-.68,.57-1.09,.79-.2,.11-.41,.17-.62,.25l31.02,58.4c.58-.33,1.17-.64,1.78-.91L8.97,9.31Z" fill="#fff"/>
  <path d="M6.38,4.44l2.59,4.87c1.76-1.61,2.3-4.25,1.13-6.46C8.71,.23,5.46-.76,2.85,.63,.23,2.02-.76,5.26,.63,7.88c1.28,2.41,4.14,3.42,6.63,2.47l-2.64-4.97,1.77-.94Z" fill="#21e5ff"/>
  <path d="M8.97,9.31l-2.59-4.87-1.77,.94,2.64,4.97c.21-.08,.42-.15,.62-.25,.41-.22,.76-.49,1.09-.79Z" fill="#21e5ff"/>
  <path d="M46.76,84.71l-6.6-12.42c-3.03,1.79-5.26,4.6-6.3,7.98-1.1,3.6-.74,7.42,1.03,10.74,1.77,3.33,4.72,5.77,8.32,6.87,1.35,.41,2.73,.62,4.1,.62,1.54-6.55,2.55-10.31,2.58-10.42l.96,.26c-.03,.11-1.01,3.75-2.51,10.11,1.93-.14,3.84-.67,5.6-1.61,3.33-1.77,5.77-4.72,6.87-8.32s.74-7.42-1.03-10.74-4.72-5.77-8.32-6.87c-3.17-.97-6.51-.8-9.53,.46l6.58,12.39-1.77,.94Z" fill="#150352"/>
  <path d="M49.9,88.08c-.03,.11-1.05,3.87-2.58,10.42,.35,0,.69-.02,1.04-.05,1.5-6.37,2.48-10,2.51-10.11l-.96-.26Z" fill="#150352"/>
  <path d="M40.16,72.29l6.6,12.42,1.77-.94-6.58-12.39c-.41,.17-.81,.36-1.21,.57-.2,.1-.38,.23-.57,.34Z" fill="#150352"/>
  <path d="M42.63,99.79c-4.11-1.26-7.49-4.04-9.5-7.84-2.02-3.8-2.43-8.15-1.18-12.27,1.19-3.9,3.77-7.12,7.27-9.16l-.94-1.77c-3.82,2.21-6.85,5.8-8.24,10.35-2.93,9.56,2.45,19.68,12.01,22.61,1.45,.44,2.91,.68,4.37,.75,.15-.68,.3-1.34,.45-1.97-1.42-.04-2.84-.26-4.23-.69Z" fill="#fff"/>
  <path d="M52.06,69c4.11,1.26,7.49,4.04,9.5,7.84s2.43,8.15,1.18,12.27c-1.26,4.11-4.04,7.49-7.84,9.5-2.2,1.17-4.59,1.78-7.01,1.86-.15,.65-.3,1.32-.46,2.02,7.72-.03,14.85-5.04,17.23-12.8,2.93-9.56-2.45-19.68-12.01-22.61-4.32-1.32-8.75-.94-12.58,.75l.94,1.77c3.5-1.51,7.37-1.73,11.06-.61Z" fill="#fff"/>
  <path d="M47.89,100.48c-.34,.01-.68,.01-1.03,0-.15,.64-.3,1.29-.45,1.97,.34,.02,.68,.05,1.01,.05,.16-.7,.31-1.37,.46-2.02Z" fill="#fff"/>
  <path d="M39.79,70.18c.4-.21,.8-.39,1.21-.57l-.94-1.77c-.61,.27-1.2,.58-1.78,.91l.94,1.77c.19-.11,.37-.24,.57-.34Z" fill="#fff"/>
  <path d="M43.21,97.88c-3.6-1.1-6.56-3.54-8.32-6.87-1.77-3.33-2.13-7.14-1.03-10.74,1.04-3.39,3.27-6.19,6.3-7.98l-.94-1.77c-3.5,2.04-6.08,5.27-7.27,9.16-1.26,4.11-.84,8.47,1.18,12.27,2.02,3.8,5.39,6.58,9.5,7.84,1.39,.43,2.81,.64,4.23,.69,.16-.68,.31-1.34,.46-1.98-1.37,0-2.75-.21-4.1-.62Z" fill="#fff"/>
  <path d="M62.74,89.11c1.26-4.11,.84-8.47-1.18-12.27s-5.39-6.58-9.5-7.84c-3.68-1.13-7.56-.9-11.06,.61l.94,1.77c3.02-1.26,6.36-1.43,9.53-.46,3.6,1.1,6.56,3.54,8.32,6.87s2.13,7.14,1.03,10.74-3.54,6.56-6.87,8.32c-1.76,.94-3.67,1.47-5.6,1.61-.15,.65-.31,1.32-.47,2.02,2.42-.08,4.81-.69,7.01-1.86,3.8-2.02,6.58-5.39,7.84-9.5Z" fill="#fff"/>
  <path d="M47.32,98.51c-.15,.63-.3,1.29-.46,1.98,.34,.01,.68,0,1.03,0,.16-.7,.32-1.38,.47-2.02-.35,.02-.69,.05-1.04,.05Z" fill="#fff"/>
  <path d="M40.73,71.95c.4-.21,.8-.4,1.21-.57l-.94-1.77c-.41,.18-.81,.36-1.21,.57-.2,.1-.38,.23-.57,.34l.94,1.77c.19-.11,.37-.24,.57-.34Z" fill="#fff"/>
  <path d="M59.75,222.95c-.44,.01-.89-.03-1.34-.13-.22-.05-.43-.12-.64-.19l-14.87,64.42c.66,.13,1.3,.28,1.94,.48l14.91-64.58Z" fill="#fff"/>
  <path d="M60.99,217.57l-1.24,5.38c2.39-.06,4.53-1.71,5.09-4.15,.67-2.89-1.13-5.77-4.02-6.43-2.89-.67-5.77,1.13-6.43,4.02-.62,2.67,.88,5.32,3.38,6.24l1.27-5.51,1.95,.45Z" fill="#21e5ff"/>
  <path d="M59.75,222.95l1.24-5.38-1.95-.45-1.27,5.51c.21,.08,.42,.14,.64,.19,.45,.1,.9,.14,1.34,.13Z" fill="#21e5ff"/>
  <path d="M45.8,317.41c.39-.2,.78-.41,1.15-.64,3.19-2,5.42-5.12,6.27-8.79s.21-7.45-1.78-10.65c-1.76-2.81-4.39-4.87-7.5-5.9l-2.68,11.63c1.33,4.9,2.85,9.69,4.55,14.35Z" fill="#150352"/>
  <path d="M42,290.95c-1.23-.22-2.46-.29-3.67-.19,.57,2.73,1.18,5.44,1.85,8.11l1.83-7.92Z" fill="#150352"/>
  <path d="M40.78,305.11l-1.95-.45,.85-3.7c-.82-3.18-1.6-6.53-2.34-10.09-1.87,.29-3.68,.95-5.34,1.98-3.19,2-5.42,5.12-6.27,8.79s-.21,7.45,1.78,10.65,5.12,5.42,8.79,6.27c2.91,.67,5.88,.4,8.57-.73-1.39-3.83-2.77-8.07-4.09-12.76v.05Z" fill="#150352"/>
  <path d="M40.17,298.87c-.67-2.68-1.28-5.39-1.85-8.11-.33,.03-.65,.06-.98,.11,.74,3.55,1.52,6.91,2.34,10.09l.48-2.09Z" fill="#150352"/>
  <path d="M40.8,305.06c1.31,4.69,2.69,8.93,4.09,12.76,.31-.13,.62-.26,.92-.41-1.7-4.66-3.22-9.45-4.55-14.35l-.46,2Z" fill="#150352"/>
  <path d="M38.84,304.66l1.95,.45v-.05c-.36-1.33-.73-2.7-1.09-4.11l-.85,3.7Z" fill="#150352"/>
  <path d="M42,290.95l-1.83,7.92c.35,1.4,.71,2.8,1.09,4.19l2.68-11.63c-.42-.14-.85-.26-1.29-.36-.22-.05-.44-.08-.66-.12Z" fill="#150352"/>
  <path d="M40.8,305.06l.46-2c-.38-1.39-.74-2.79-1.09-4.19l-.48,2.09c.36,1.41,.73,2.77,1.11,4.11Z" fill="#150352"/>
  <path d="M53.14,296.28c2.28,3.65,3,7.96,2.03,12.16-.97,4.19-3.51,7.75-7.16,10.03-.49,.31-1,.58-1.51,.83,.21,.55,.41,1.11,.62,1.66,.03,.07,.06,.14,.08,.21,.63-.3,1.26-.63,1.86-1.01,8.48-5.3,11.06-16.47,5.76-24.94-2.39-3.83-5.99-6.44-9.99-7.68l-.45,1.95c3.63,1.16,6.71,3.53,8.75,6.79Z" fill="#fff"/>
  <path d="M45.58,319.7c-3.06,1.26-6.43,1.56-9.72,.8-4.19-.97-7.75-3.51-10.03-7.16-2.28-3.65-3-7.96-2.03-12.16s3.51-7.75,7.16-10.03c1.86-1.16,3.9-1.92,6-2.25-.13-.65-.26-1.3-.39-1.96-2.3,.38-4.57,1.2-6.67,2.52-8.48,5.3-11.06,16.47-5.76,24.94,4.74,7.58,14.16,10.42,22.16,7.16-.03-.08-.06-.16-.1-.25-.21-.53-.41-1.07-.62-1.62Z" fill="#fff"/>
  <path d="M42.45,289l.45-1.95c-1.76-.34-3.56-.42-5.36-.22,.12,.65,.24,1.31,.37,1.96,1.5-.15,3.02-.08,4.54,.21Z" fill="#fff"/>
  <path d="M37.91,288.79c-.13-.65-.25-1.31-.37-1.96-.33,.03-.65,.06-.98,.11,.13,.67,.26,1.31,.39,1.96,.32-.05,.64-.08,.96-.11Z" fill="#fff"/>
  <path d="M47.13,320.95c-.21-.55-.41-1.11-.62-1.66-.3,.15-.62,.28-.93,.41,.21,.54,.41,1.09,.62,1.62,.03,.08,.06,.16,.1,.25,.31-.13,.62-.25,.92-.4-.03-.07-.06-.14-.08-.21Z" fill="#fff"/>
  <path d="M43.11,289.12c.44,.1,.86,.23,1.29,.36l.45-1.95c-.64-.2-1.29-.35-1.94-.48l-.45,1.95c.22,.04,.44,.07,.66,.12Z" fill="#fff"/>
  <path d="M55.17,308.43c.97-4.19,.25-8.51-2.03-12.16-2.04-3.27-5.12-5.64-8.75-6.79l-.45,1.95c3.11,1.03,5.74,3.09,7.5,5.9,2,3.19,2.63,6.98,1.78,10.65s-3.07,6.79-6.27,8.79c-.38,.24-.76,.45-1.15,.64,.23,.63,.47,1.26,.71,1.88,.51-.25,1.02-.52,1.51-.83,3.65-2.28,6.19-5.84,7.16-10.03Z" fill="#fff"/>
  <path d="M42,290.95l.45-1.95c-1.51-.29-3.04-.36-4.54-.21,.13,.66,.28,1.31,.41,1.96,1.22-.1,2.45-.03,3.67,.19Z" fill="#fff"/>
  <path d="M36.31,318.55c-3.67-.85-6.79-3.07-8.79-6.27s-2.63-6.98-1.78-10.65,3.07-6.79,6.27-8.79c1.65-1.03,3.47-1.69,5.34-1.98-.13-.64-.26-1.31-.39-1.97-2.11,.33-4.14,1.09-6,2.25-3.65,2.28-6.19,5.84-7.16,10.03s-.25,8.51,2.03,12.16c2.28,3.65,5.84,6.19,10.03,7.16,3.29,.76,6.66,.46,9.72-.8-.23-.61-.46-1.24-.7-1.88-2.7,1.13-5.67,1.4-8.57,.73Z" fill="#fff"/>
  <path d="M38.33,290.76c-.14-.66-.28-1.31-.41-1.96-.32,.03-.64,.06-.96,.11,.13,.66,.26,1.32,.39,1.97,.32-.05,.65-.09,.98-.11Z" fill="#fff"/>
  <path d="M44.88,317.82c.23,.64,.46,1.26,.7,1.88,.31-.13,.62-.26,.93-.41-.24-.63-.48-1.25-.71-1.88-.3,.15-.61,.28-.92,.41Z" fill="#fff"/>
  <path d="M42.66,291.07c.44,.1,.87,.22,1.29,.36l.45-1.95c-.42-.13-.85-.26-1.29-.36-.22-.05-.44-.08-.66-.12l-.45,1.95c.22,.04,.44,.07,.66,.12Z" fill="#fff"/>
  <path d="M12.92,402.01c-.35,.27-.74,.5-1.16,.68-.21,.09-.42,.16-.63,.22l25.83,60.86c.6-.28,1.22-.54,1.85-.75l-25.9-61.01Z" fill="#fff"/>
  <path d="M10.76,396.93l2.16,5.09c1.9-1.45,2.66-4.05,1.68-6.35-1.16-2.73-4.31-4-7.03-2.84-2.73,1.16-4,4.31-2.84,7.03,1.07,2.52,3.84,3.79,6.4,3.06l-2.21-5.21,1.84-.78Z" fill="#21e5ff"/>
  <path d="M12.92,402.01l-2.16-5.09-1.84,.78,2.21,5.21c.21-.06,.42-.13,.63-.22,.43-.18,.81-.41,1.16-.68Z" fill="#21e5ff"/>
  <path d="M45.87,479.63l-1.84,.78-.25-.6c-1.93,3.82-3.8,8.1-5.5,12.91,.35,.18,.71,.35,1.08,.5,3.49,1.41,7.33,1.38,10.79-.09,3.47-1.47,6.15-4.21,7.57-7.7,1.41-3.49,1.38-7.33-.09-10.79-1.31-3.08-3.61-5.53-6.55-7.04-2.01,2.87-4.07,6.15-6.1,9.91l.9,2.11Z" fill="#150352"/>
  <path d="M38.53,467.46c-3.17,1.52-5.64,4.12-6.97,7.41-1.41,3.49-1.38,7.33,.09,10.79,1.2,2.83,3.25,5.12,5.86,6.64,1.77-4.88,3.75-9.33,5.86-13.43l-4.85-11.42Z" fill="#150352"/>
  <path d="M50.31,467.25c-.13-.06-.26-.13-.39-.18-3.08-1.24-6.42-1.36-9.54-.37l4.2,9.9c1.83-3.35,3.75-6.46,5.73-9.35Z" fill="#150352"/>
  <path d="M43.37,478.87c-2.11,4.09-4.09,8.55-5.86,13.43,.25,.15,.5,.29,.76,.42,1.7-4.81,3.57-9.09,5.5-12.91l-.4-.94Z" fill="#150352"/>
  <path d="M44.58,476.6l.39,.91c2.02-3.76,4.09-7.04,6.1-9.91-.25-.13-.5-.24-.76-.35-1.97,2.89-3.89,6-5.73,9.35Z" fill="#150352"/>
  <path d="M44.03,480.41l1.84-.78-.9-2.11c-.4,.75-.8,1.51-1.2,2.3l.25,.6Z" fill="#150352"/>
  <path d="M44.58,476.6l-4.2-9.9c-.42,.13-.84,.29-1.26,.46-.21,.09-.4,.19-.6,.29l4.85,11.42c.4-.77,.8-1.53,1.21-2.27Z" fill="#150352"/>
  <path d="M43.77,479.81c.4-.79,.8-1.55,1.2-2.3l-.39-.91c-.41,.75-.81,1.5-1.21,2.27l.4,.94Z" fill="#150352"/>
  <path d="M50.67,465.22c.27,.11,.53,.24,.8,.37,.39-.56,.79-1.11,1.19-1.65-.41-.2-.81-.4-1.24-.57-4.19-1.69-8.63-1.69-12.6-.34l.78,1.84c3.62-1.2,7.5-1.09,11.07,.35Z" fill="#fff"/>
  <path d="M59.46,473.86c1.68,3.96,1.72,8.34,.11,12.32-1.61,3.99-4.68,7.11-8.64,8.79-3.96,1.68-8.34,1.72-12.32,.11-.34-.14-.66-.3-.99-.46-.21,.63-.42,1.26-.62,1.91,.29,.13,.57,.28,.86,.4,9.27,3.75,19.82-.73,23.57-10,3.46-8.57-.11-18.21-7.99-22.59-.4,.52-.8,1.06-1.2,1.61,3.24,1.73,5.77,4.48,7.22,7.9Z" fill="#fff"/>
  <path d="M29.82,486.44c-1.68-3.96-1.72-8.34-.11-12.32,1.53-3.78,4.37-6.77,8.04-8.5l-.78-1.84c-4,1.87-7.33,5.18-9.11,9.59-3.51,8.69,.21,18.51,8.33,22.79,.21-.65,.43-1.3,.65-1.94-3.14-1.73-5.6-4.43-7.02-7.78Z" fill="#fff"/>
  <path d="M37.62,494.62c-.27-.13-.53-.26-.78-.4-.22,.64-.44,1.28-.65,1.94,.26,.14,.54,.25,.81,.38,.21-.65,.41-1.28,.62-1.91Z" fill="#fff"/>
  <path d="M52.24,465.96c.4-.55,.8-1.09,1.2-1.61-.26-.14-.52-.28-.78-.41-.4,.54-.79,1.09-1.19,1.65,.26,.12,.52,.24,.77,.37Z" fill="#fff"/>
  <path d="M38.35,465.33c.41-.18,.83-.32,1.26-.46l-.78-1.84c-.63,.22-1.25,.47-1.85,.75l.78,1.84c.2-.1,.39-.2,.6-.29Z" fill="#fff"/>
  <path d="M31.66,485.66c-1.47-3.47-1.51-7.3-.09-10.79,1.33-3.29,3.79-5.89,6.97-7.41l-.78-1.84c-3.66,1.73-6.51,4.72-8.04,8.5-1.61,3.99-1.57,8.36,.11,12.32,1.42,3.35,3.88,6.05,7.02,7.78,.22-.65,.45-1.29,.68-1.92-2.61-1.52-4.66-3.82-5.86-6.64Z" fill="#fff"/>
  <path d="M50.93,494.97c3.96-1.68,7.03-4.8,8.64-8.79,1.61-3.99,1.57-8.36-.11-12.32-1.45-3.42-3.99-6.17-7.22-7.9-.39,.53-.78,1.08-1.17,1.65,2.94,1.5,5.25,3.96,6.55,7.04,1.47,3.47,1.51,7.3,.09,10.79-1.41,3.49-4.1,6.23-7.57,7.7-3.47,1.47-7.3,1.51-10.79,.09-.37-.15-.73-.32-1.08-.5-.22,.62-.44,1.26-.65,1.9,.33,.16,.65,.32,.99,.46,3.99,1.61,8.36,1.57,12.32-.11Z" fill="#fff"/>
  <path d="M49.92,467.07c.13,.05,.26,.12,.39,.18,.38-.56,.77-1.12,1.16-1.67-.27-.12-.52-.26-.8-.37-3.57-1.44-7.45-1.55-11.07-.35l.78,1.84c3.12-.99,6.46-.88,9.54,.37Z" fill="#fff"/>
  <path d="M51.07,467.6c.39-.56,.78-1.11,1.17-1.65-.25-.13-.51-.25-.77-.37-.39,.55-.77,1.1-1.16,1.67,.26,.11,.51,.22,.76,.35Z" fill="#fff"/>
  <path d="M37.51,492.3c-.23,.63-.46,1.27-.68,1.92,.26,.14,.52,.27,.78,.4,.22-.64,.43-1.27,.65-1.9-.26-.13-.51-.28-.76-.42Z" fill="#fff"/>
  <path d="M39.13,467.17c.41-.18,.83-.33,1.26-.46l-.78-1.84c-.42,.14-.84,.29-1.26,.46-.21,.09-.4,.19-.6,.29l.78,1.84c.2-.1,.39-.2,.6-.29Z" fill="#fff"/>
  <path d="M64.99,665.62c-.44,.07-.89,.1-1.35,.06-.22-.02-.44-.06-.66-.1l-5.75,65.85c.67,.03,1.33,.1,1.99,.21l5.77-66.01Z" fill="#fff"/>
  <path d="M65.47,660.12l-.48,5.5c2.36-.39,4.25-2.33,4.46-4.82,.26-2.95-1.93-5.55-4.88-5.81-2.95-.26-5.55,1.93-5.81,4.88-.24,2.73,1.61,5.15,4.22,5.71l.49-5.63,1.99,.17Z" fill="#21e5ff"/>
  <path d="M64.99,665.62l.48-5.5-1.99-.17-.49,5.63c.22,.05,.43,.08,.66,.1,.46,.04,.91,.01,1.35-.06Z" fill="#21e5ff"/>
  <path d="M47.26,738.69c-2.88,2.42-4.65,5.82-4.98,9.57s.83,7.41,3.25,10.29,5.82,4.65,9.57,4.98c.61,.05,1.22,.05,1.82,.03-.81-8.88-1.8-18.24-2.93-27.97-2.46,.41-4.77,1.45-6.73,3.09Z" fill="#f4b63f"/>
  <path d="M56.58,749.51c.5,4.73,.97,9.4,1.39,13.98,2.71-.31,5.27-1.41,7.41-3.2,2.88-2.42,4.65-5.82,4.98-9.57,.33-3.75-.83-7.41-3.25-10.29-2.13-2.54-5.03-4.21-8.25-4.8l-1.22,13.98-1.07-.09Z" fill="#f4b63f"/>
  <path d="M56.88,735.41c-.63-.03-1.25-.02-1.87,.04,.36,3.11,.72,6.21,1.05,9.29l.82-9.33Z" fill="#f4b63f"/>
  <path d="M55.66,749.43l.41-4.68c-.34-3.08-.69-6.18-1.05-9.29-.35,.03-.69,.08-1.03,.14,1.13,9.73,2.11,19.09,2.93,27.97,.35-.01,.71-.03,1.06-.07-.42-4.58-.89-9.25-1.39-13.98l-.92-.08Z" fill="#f4b63f"/>
  <path d="M56.88,735.41l-.82,9.33c.18,1.59,.35,3.18,.51,4.76l1.07,.09,1.22-13.98c-.44-.08-.88-.14-1.32-.18-.22-.02-.44-.02-.66-.03Z" fill="#f4b63f"/>
  <path d="M56.58,749.51c-.17-1.58-.34-3.17-.51-4.76l-.41,4.68,.92,.08Z" fill="#f4b63f"/>
  <path d="M57.06,733.42l.17-1.99c-.9-.05-1.79-.04-2.69,.05,.08,.66,.16,1.33,.24,1.99,.75-.07,1.51-.08,2.28-.04Z" fill="#fff"/>
  <path d="M54.92,765.52c-4.28-.37-8.17-2.39-10.93-5.69s-4.08-7.47-3.71-11.75c.37-4.28,2.39-8.17,5.69-10.93,2.26-1.9,4.94-3.1,7.78-3.55-.08-.66-.16-1.32-.24-1.98-3.15,.49-6.21,1.8-8.84,4-7.66,6.43-8.65,17.84-2.23,25.5,3.8,4.52,9.34,6.7,14.81,6.42-.06-.66-.12-1.32-.18-1.99-.72,.03-1.44,.04-2.17-.03Z" fill="#fff"/>
  <path d="M68.65,739.14c2.76,3.29,4.08,7.47,3.71,11.75s-2.39,8.17-5.69,10.93c-2.46,2.06-5.4,3.31-8.52,3.67,.06,.66,.12,1.33,.18,1.99,3.43-.38,6.79-1.74,9.62-4.12,7.66-6.43,8.65-17.84,2.23-25.5-2.9-3.46-6.83-5.55-10.96-6.21l-.17,1.99c3.75,.64,7.13,2.56,9.61,5.51Z" fill="#fff"/>
  <path d="M58.15,765.48c-.35,.04-.71,.05-1.06,.07,.06,.66,.12,1.33,.18,1.99,.35-.02,.71-.03,1.06-.07-.06-.66-.12-1.32-.18-1.99Z" fill="#fff"/>
  <path d="M54.78,733.47c-.08-.66-.16-1.32-.24-1.99-.34,.03-.68,.09-1.02,.15,.08,.66,.16,1.32,.24,1.98,.34-.05,.68-.11,1.02-.14Z" fill="#fff"/>
  <path d="M57.72,733.45c.45,.04,.89,.11,1.32,.18l.17-1.99c-.66-.11-1.32-.17-1.99-.21l-.17,1.99c.22,.01,.44,0,.66,.03Z" fill="#fff"/>
  <path d="M55.09,763.53c-3.75-.33-7.15-2.1-9.57-4.98s-3.57-6.54-3.25-10.29,2.1-7.15,4.98-9.57c1.96-1.64,4.27-2.69,6.73-3.09-.08-.66-.15-1.32-.23-1.99-2.84,.45-5.52,1.65-7.78,3.55-3.29,2.76-5.31,6.65-5.69,10.93-.37,4.28,.94,8.46,3.71,11.75s6.65,5.31,10.93,5.69c.73,.06,1.45,.06,2.17,.03-.06-.66-.12-1.32-.18-1.99-.6,.02-1.21,.02-1.82-.03Z" fill="#fff"/>
  <path d="M72.36,750.89c.37-4.28-.94-8.46-3.71-11.75-2.48-2.95-5.85-4.87-9.61-5.51l-.17,1.99c3.22,.59,6.12,2.26,8.25,4.8,2.42,2.88,3.57,6.54,3.25,10.29-.33,3.75-2.1,7.15-4.98,9.57-2.14,1.8-4.7,2.89-7.41,3.2,.06,.67,.12,1.33,.18,1.99,3.11-.35,6.06-1.6,8.52-3.67,3.29-2.76,5.31-6.65,5.69-10.93Z" fill="#fff"/>
  <path d="M56.88,735.41l.17-1.99c-.77-.04-1.53-.03-2.28,.04,.08,.66,.16,1.33,.23,1.99,.62-.06,1.24-.06,1.87-.04Z" fill="#fff"/>
  <path d="M55.01,735.45c-.08-.66-.16-1.32-.23-1.99-.34,.03-.68,.08-1.02,.14,.08,.66,.15,1.32,.23,1.99,.34-.06,.68-.11,1.03-.14Z" fill="#fff"/>
  <path d="M56.91,763.56c.06,.67,.12,1.33,.18,1.99,.35-.02,.71-.03,1.06-.07-.06-.66-.12-1.33-.18-1.99-.35,.04-.7,.06-1.06,.07Z" fill="#fff"/>
  <path d="M57.55,735.44c.45,.04,.89,.1,1.32,.18l.17-1.99c-.44-.07-.88-.14-1.32-.18-.22-.02-.44-.02-.66-.03l-.17,1.99c.22,0,.44,0,.66,.03Z" fill="#fff"/>
  <path d="M8.97,909.31c-.33,.3-.68,.57-1.09,.79-.2,.11-.41,.17-.62,.25l31.02,58.4c.58-.33,1.17-.64,1.78-.91l-31.09-58.54Z" fill="#fff"/>
  <path d="M6.38,904.44l2.59,4.87c1.76-1.61,2.3-4.25,1.13-6.46-1.39-2.62-4.64-3.61-7.25-2.22-2.62,1.39-3.61,4.64-2.22,7.25,1.28,2.41,4.14,3.42,6.63,2.47l-2.64-4.97,1.77-.94Z" fill="#21e5ff"/>
  <path d="M8.97,909.31l-2.59-4.87-1.77,.94,2.64,4.97c.21-.08,.42-.15,.62-.25,.41-.22,.76-.49,1.09-.79Z" fill="#21e5ff"/>
  <path d="M48.52,983.77l-1.27,.67c-.04,1.26-.09,2.52-.13,3.81-.12,3.5-.27,6.89-.42,10.21,2.5,.12,4.99-.42,7.26-1.62,3.33-1.77,5.77-4.72,6.87-8.32,1.1-3.6,.74-7.42-1.03-10.74s-4.72-5.77-8.32-6.87c-1.22-.37-2.46-.56-3.69-.6-.14,3.6-.28,7.35-.42,11.27l1.16,2.19Z" fill="#fff"/>
  <path d="M46.78,970.32c-1.65,.07-3.29,.41-4.84,1.06l4.48,8.44c.12-3.28,.24-6.44,.36-9.49Z" fill="#fff"/>
  <path d="M46.28,983.8l-6.12-11.52c-3.03,1.79-5.26,4.6-6.3,7.98-1.1,3.6-.74,7.42,1.03,10.74,1.77,3.33,4.72,5.77,8.32,6.87,.82,.25,1.65,.42,2.49,.52,.16-3.31,.3-6.69,.42-10.17,.05-1.49,.1-2.97,.15-4.42Z" fill="#fff"/>
  <path d="M46.42,979.81l.94,1.77c.14-3.91,.28-7.67,.42-11.27-.33-.01-.67,0-1,0-.12,3.06-.24,6.21-.36,9.49Z" fill="#fff"/>
  <path d="M47.25,984.44l-.5,.27-.48-.9c-.05,1.45-.1,2.92-.15,4.42-.12,3.48-.26,6.86-.42,10.17,.33,.04,.67,.06,1,.08,.16-3.33,.3-6.71,.42-10.21,.04-1.29,.09-2.56,.13-3.81Z" fill="#fff"/>
  <path d="M46.42,979.81l-4.48-8.44c-.41,.17-.81,.36-1.21,.57-.2,.1-.38,.23-.57,.34l6.12,11.52c.05-1.35,.1-2.68,.14-3.99Z" fill="#fff"/>
  <path d="M48.52,983.77l-1.16-2.19c-.03,.95-.07,1.9-.1,2.87l1.27-.67Z" fill="#fff"/>
  <path d="M46.76,984.71l.5-.27c.03-.97,.07-1.92,.1-2.87l-.94-1.77c-.05,1.31-.1,2.64-.14,3.99l.48,.9Z" fill="#fff"/>
  <path d="M42.63,999.79c-4.11-1.26-7.49-4.04-9.5-7.84-2.02-3.8-2.43-8.15-1.18-12.27,1.19-3.9,3.77-7.12,7.27-9.16l-.94-1.77c-3.82,2.21-6.85,5.8-8.24,10.35-2.93,9.56,2.45,19.68,12.01,22.61,1.15,.35,2.31,.58,3.46,.7,.04-.67,.07-1.33,.1-2-1-.11-2-.31-2.98-.61Z" fill="#fff"/>
  <path d="M52.06,969c4.11,1.26,7.49,4.04,9.5,7.84,2.02,3.8,2.43,8.15,1.18,12.27-1.26,4.11-4.04,7.49-7.84,9.5-2.59,1.38-5.44,1.99-8.29,1.85-.03,.67-.07,1.33-.1,1.99,8.07,.38,15.68-4.69,18.15-12.76,2.93-9.56-2.45-19.68-12.01-22.61-1.57-.48-3.14-.71-4.7-.77-.03,.66-.05,1.32-.08,1.99,1.41,.05,2.82,.26,4.2,.69Z" fill="#fff"/>
  <path d="M46.86,968.31c.03-.67,.05-1.34,.08-2-2.4,.05-4.73,.59-6.88,1.53l.94,1.77c1.87-.81,3.85-1.24,5.86-1.3Z" fill="#fff"/>
  <path d="M46.6,1000.47c-.33-.02-.67-.03-1-.07-.03,.67-.07,1.33-.1,2,.33,.03,.67,.04,1,.06,.04-.66,.07-1.32,.1-1.99Z" fill="#fff"/>
  <path d="M47.86,968.31c.03-.67,.05-1.33,.08-1.99-.33-.01-.67-.02-1-.01-.03,.66-.05,1.33-.08,2,.33,0,.67,0,1,0Z" fill="#fff"/>
  <path d="M39.79,970.18c.4-.21,.8-.39,1.21-.57l-.94-1.77c-.61,.27-1.2,.58-1.78,.91l.94,1.77c.19-.11,.37-.24,.57-.34Z" fill="#fff"/>
  <path d="M46.78,970.32c.03-.67,.05-1.34,.08-2-2,.06-3.98,.49-5.86,1.3l.94,1.77c1.55-.65,3.19-.99,4.84-1.06Z" fill="#fff"/>
  <path d="M43.21,997.88c-3.6-1.1-6.56-3.54-8.32-6.87-1.77-3.33-2.13-7.14-1.03-10.74,1.04-3.39,3.27-6.19,6.3-7.98l-.94-1.77c-3.5,2.04-6.08,5.27-7.27,9.16-1.26,4.11-.84,8.47,1.18,12.27,2.02,3.8,5.39,6.58,9.5,7.84,.98,.3,1.98,.5,2.98,.61,.03-.66,.06-1.34,.09-2.01-.83-.1-1.67-.26-2.49-.52Z" fill="#fff"/>
  <path d="M54.89,998.61c3.8-2.02,6.58-5.39,7.84-9.5,1.26-4.11,.84-8.47-1.18-12.27-2.02-3.8-5.39-6.58-9.5-7.84-1.38-.42-2.79-.64-4.2-.69-.03,.66-.05,1.33-.08,2,1.24,.04,2.48,.23,3.69,.6,3.6,1.1,6.56,3.54,8.32,6.87s2.13,7.14,1.03,10.74c-1.1,3.6-3.54,6.56-6.87,8.32-2.27,1.2-4.76,1.74-7.26,1.62-.03,.66-.06,1.34-.09,2,2.85,.14,5.7-.48,8.29-1.85Z" fill="#fff"/>
  <path d="M47.78,970.31c.03-.67,.05-1.34,.08-2-.33-.01-.67-.01-1,0-.03,.66-.05,1.33-.08,2,.33-.01,.67-.02,1,0Z" fill="#fff"/>
  <path d="M45.7,998.39c-.03,.67-.06,1.35-.09,2.01,.33,.04,.67,.05,1,.07,.03-.66,.06-1.33,.09-2-.33-.02-.67-.04-1-.08Z" fill="#fff"/>
  <path d="M40.73,971.94c.4-.21,.8-.4,1.21-.57l-.94-1.77c-.41,.18-.81,.36-1.21,.57-.2,.1-.38,.23-.57,.34l.94,1.77c.19-.11,.37-.24,.57-.34Z" fill="#fff"/>
  <path d="M67.85,1111.4c-.44-.04-.88-.13-1.31-.29-.21-.08-.41-.17-.61-.27l-22.61,62.15c.64,.21,1.26,.44,1.87,.71l22.67-62.3Z" fill="#fff"/>
  <path d="M69.74,1106.21l-1.89,5.19c2.38,.23,4.71-1.15,5.56-3.5,1.01-2.78-.42-5.86-3.21-6.88-2.78-1.01-5.86,.42-6.88,3.21-.94,2.57,.22,5.39,2.6,6.61l1.93-5.32,1.88,.68Z" fill="#21e5ff"/>
  <path d="M67.85,1111.4l1.89-5.19-1.88-.68-1.93,5.32c.2,.1,.4,.19,.61,.27,.43,.16,.88,.25,1.31,.29Z" fill="#21e5ff"/>
  <path d="M39.01,1190.66l-1.88-.68,1.61-4.43c-.59-3.23-1.13-6.37-1.6-9.44-1.83,.08-3.64,.52-5.35,1.32-3.41,1.59-6,4.42-7.29,7.96-1.29,3.54-1.12,7.37,.47,10.79,1.59,3.41,4.42,6,7.96,7.29,3.11,1.13,6.45,1.14,9.53,.04-1.12-4.88-2.11-9.57-2.99-14.1l-.46,1.26Z" fill="#fff"/>
  <path d="M43.4,1203.12c.11-.05,.21-.08,.32-.13,3.41-1.59,6-4.42,7.29-7.96,1.29-3.54,1.12-7.37-.47-10.79-1.4-3.01-3.77-5.37-6.73-6.78l-3.68,10.12c.94,4.97,2.03,10.14,3.27,15.54Z" fill="#fff"/>
  <path d="M41.94,1176.75c-1.24-.39-2.51-.6-3.79-.64,.38,2.48,.8,5,1.26,7.58l2.52-6.93Z" fill="#fff"/>
  <path d="M39.47,1189.4c.88,4.53,1.87,9.22,2.99,14.1,.32-.11,.63-.25,.94-.38-1.24-5.4-2.32-10.57-3.27-15.54l-.66,1.82Z" fill="#fff"/>
  <path d="M39.42,1183.68c-.46-2.58-.88-5.1-1.26-7.58-.34,0-.68-.02-1.01,0,.48,3.07,1.01,6.22,1.6,9.44l.68-1.86Z" fill="#fff"/>
  <path d="M37.13,1189.98l1.88,.68,.46-1.26c-.25-1.3-.49-2.58-.73-3.85l-1.61,4.43Z" fill="#fff"/>
  <path d="M41.94,1176.75l-2.52,6.93c.23,1.29,.46,2.58,.71,3.9l3.68-10.12c-.4-.19-.81-.36-1.23-.52-.21-.08-.42-.13-.64-.2Z" fill="#fff"/>
  <path d="M39.47,1189.4l.66-1.82c-.25-1.32-.48-2.61-.71-3.9l-.68,1.86c.23,1.27,.48,2.56,.73,3.85Z" fill="#fff"/>
  <path d="M52.35,1183.39c1.82,3.9,2.01,8.27,.54,12.32-1.47,4.04-4.43,7.27-8.33,9.09-.23,.11-.47,.19-.7,.29,.15,.65,.31,1.31,.46,1.97,.36-.14,.73-.27,1.08-.44,9.06-4.23,12.98-15,8.76-24.06-1.91-4.1-5.16-7.13-8.99-8.84l-.68,1.88c3.46,1.59,6.23,4.32,7.86,7.81Z" fill="#fff"/>
  <path d="M42.63,1174.87l.68-1.88c-1.85-.6-3.79-.9-5.75-.88,.09,.66,.19,1.33,.29,2,1.61,.01,3.21,.26,4.78,.76Z" fill="#fff"/>
  <path d="M32.25,1205.34c-4.04-1.47-7.27-4.43-9.09-8.33-1.82-3.9-2.01-8.27-.54-12.32s4.43-7.27,8.33-9.09c1.88-.88,3.88-1.37,5.89-1.48-.1-.66-.19-1.32-.29-1.97-2.17,.14-4.36,.67-6.45,1.64-9.06,4.23-12.98,15-8.76,24.06,3.92,8.4,13.45,12.36,22.04,9.54-.16-.65-.31-1.3-.46-1.95-3.46,1.18-7.19,1.15-10.67-.11Z" fill="#fff"/>
  <path d="M43.86,1205.09c-.31,.13-.62,.26-.94,.37,.15,.65,.3,1.29,.46,1.95,.32-.1,.63-.23,.95-.35-.16-.66-.31-1.31-.46-1.97Z" fill="#fff"/>
  <path d="M37.85,1174.11c-.1-.67-.2-1.34-.29-2-.34,0-.67,.02-1.01,.04,.09,.65,.19,1.31,.29,1.97,.34-.02,.67-.02,1.01-.02Z" fill="#fff"/>
  <path d="M43.26,1175.07c.42,.15,.83,.33,1.23,.52l.68-1.88c-.61-.27-1.23-.51-1.87-.71l-.68,1.88c.21,.07,.43,.12,.64,.2Z" fill="#fff"/>
  <path d="M32.93,1203.46c-3.54-1.29-6.37-3.88-7.96-7.29-1.59-3.41-1.76-7.25-.47-10.79,1.29-3.54,3.88-6.37,7.29-7.96,1.71-.8,3.52-1.24,5.35-1.32-.1-.66-.21-1.32-.3-1.98-2.01,.12-4.01,.6-5.89,1.48-3.9,1.82-6.86,5.05-8.33,9.09s-1.28,8.42,.54,12.32c1.82,3.9,5.05,6.86,9.09,8.33,3.48,1.27,7.21,1.29,10.67,.11-.15-.65-.31-1.31-.46-1.95-3.08,1.1-6.42,1.09-9.53-.04Z" fill="#fff"/>
  <path d="M52.89,1195.71c1.47-4.04,1.28-8.42-.54-12.32-1.63-3.49-4.39-6.22-7.86-7.81l-.68,1.88c2.96,1.4,5.32,3.77,6.73,6.78,1.59,3.41,1.76,7.25,.47,10.79-1.29,3.54-3.88,6.37-7.29,7.96-.11,.05-.21,.08-.32,.13,.15,.65,.31,1.31,.46,1.97,.23-.1,.47-.18,.7-.29,3.9-1.82,6.86-5.05,8.33-9.09Z" fill="#fff"/>
  <path d="M41.94,1176.75l.68-1.88c-1.57-.5-3.17-.75-4.78-.76,.1,.66,.2,1.33,.31,2,1.27,.04,2.54,.25,3.79,.64Z" fill="#fff"/>
  <path d="M38.16,1176.11c-.1-.67-.21-1.34-.31-2-.34,0-.67,0-1.01,.02,.1,.65,.2,1.32,.3,1.98,.34-.01,.68,0,1.01,0Z" fill="#fff"/>
  <path d="M42.46,1203.5c.15,.64,.31,1.3,.46,1.95,.32-.11,.63-.24,.94-.37-.15-.65-.32-1.32-.46-1.97-.31,.14-.62,.27-.94,.38Z" fill="#fff"/>
  <path d="M42.58,1176.95c.42,.15,.83,.33,1.23,.52l.68-1.88c-.4-.19-.81-.36-1.23-.52-.21-.08-.42-.13-.64-.2l-.68,1.88c.21,.07,.43,.12,.64,.2Z" fill="#fff"/>
  <path d="M19.16,1384.31c-.33,.3-.68,.57-1.09,.79-.2,.11-.41,.17-.62,.25l31.02,58.4c.58-.33,1.17-.64,1.78-.91l-31.09-58.53Z" fill="#fff"/>
  <path d="M16.58,1379.44l2.59,4.87c1.76-1.61,2.3-4.25,1.13-6.46-1.39-2.62-4.64-3.61-7.25-2.22-2.62,1.39-3.61,4.64-2.22,7.25,1.28,2.41,4.14,3.42,6.63,2.47l-2.64-4.97,1.77-.94Z" fill="#21e5ff"/>
  <path d="M19.16,1384.31l-2.59-4.87-1.77,.94,2.64,4.97c.21-.08,.42-.15,.62-.25,.41-.22,.76-.49,1.09-.79Z" fill="#21e5ff"/>
  <path d="M61.66,1445.91c-3.17-.97-6.51-.8-9.53,.46l6.58,12.4-1.77,.94-6.6-12.42c-3.03,1.79-5.26,4.6-6.3,7.98-1.1,3.6-.74,7.42,1.03,10.74,1.77,3.33,4.72,5.77,8.32,6.87,1.71,.52,3.47,.71,5.21,.57,2.47-7.95,4.48-16.69,6.02-26.23-.93-.54-1.92-.99-2.97-1.31Z" fill="#fff"/>
  <path d="M64.15,1471.85c3.33-1.77,5.77-4.72,6.87-8.32,1.1-3.6,.74-7.42-1.03-10.74-1.09-2.06-2.64-3.77-4.51-5.04-1.49,9.1-3.42,17.67-5.84,25.59,1.56-.24,3.08-.72,4.51-1.48Z" fill="#fff"/>
  <path d="M58.61,1473.45c.34-.03,.68-.07,1.02-.12,2.42-7.92,4.35-16.49,5.84-25.59-.27-.18-.56-.35-.84-.52-1.54,9.53-3.55,18.28-6.02,26.23Z" fill="#fff"/>
  <path d="M58.71,1458.77l-6.58-12.4c-.41,.17-.81,.36-1.21,.57-.2,.1-.38,.23-.57,.34l6.6,12.42,1.77-.94Z" fill="#fff"/>
  <path d="M71.75,1451.84c2.02,3.8,2.43,8.15,1.18,12.27-1.26,4.11-4.04,7.49-7.84,9.5-1.93,1.02-3.99,1.63-6.1,1.82-.22,.68-.45,1.36-.67,2.03,7.45-.32,14.22-5.24,16.53-12.77,2.57-8.39-1.26-17.22-8.71-21.22-.1,.71-.21,1.42-.32,2.13,2.49,1.49,4.54,3.61,5.94,6.24Z" fill="#fff"/>
  <path d="M62.25,1444c.95,.29,1.86,.67,2.72,1.12,.1-.68,.2-1.38,.3-2.07-.78-.37-1.59-.71-2.44-.97-4.32-1.32-8.75-.94-12.58,.75l.94,1.77c3.5-1.51,7.37-1.73,11.06-.61Z" fill="#fff"/>
  <path d="M52.82,1474.79c-4.11-1.26-7.49-4.04-9.5-7.84-2.02-3.8-2.43-8.15-1.18-12.27,1.19-3.9,3.77-7.12,7.27-9.16l-.94-1.77c-3.82,2.21-6.85,5.8-8.24,10.35-2.93,9.56,2.45,19.68,12.01,22.61,1.68,.52,3.39,.76,5.06,.78,.23-.67,.46-1.33,.68-2-1.72,.05-3.46-.17-5.16-.69Z" fill="#fff"/>
  <path d="M58.98,1475.43c-.33,.03-.67,.04-1.01,.05-.22,.68-.45,1.34-.68,2,.34,0,.68,0,1.01-.02,.23-.67,.45-1.34,.67-2.03Z" fill="#fff"/>
  <path d="M65.81,1445.6c.11-.71,.22-1.42,.32-2.13-.28-.15-.57-.28-.86-.41-.1,.69-.2,1.39-.3,2.07,.29,.15,.56,.31,.84,.48Z" fill="#fff"/>
  <path d="M49.98,1445.18c.4-.21,.8-.39,1.21-.57l-.94-1.77c-.61,.27-1.2,.58-1.78,.91l.94,1.77c.19-.11,.37-.24,.57-.34Z" fill="#fff"/>
  <path d="M72.93,1464.11c1.26-4.11,.84-8.47-1.18-12.27-1.4-2.63-3.45-4.75-5.94-6.24-.11,.72-.22,1.43-.34,2.14,1.87,1.27,3.42,2.99,4.51,5.04,1.77,3.33,2.13,7.14,1.03,10.74-1.1,3.6-3.54,6.56-6.87,8.32-1.43,.76-2.96,1.24-4.51,1.48-.22,.7-.43,1.41-.65,2.11,2.11-.19,4.18-.8,6.1-1.82,3.8-2.02,6.58-5.39,7.84-9.5Z" fill="#fff"/>
  <path d="M53.41,1472.88c-3.6-1.1-6.56-3.54-8.32-6.87-1.77-3.33-2.13-7.14-1.03-10.74,1.04-3.39,3.27-6.19,6.3-7.98l-.94-1.77c-3.5,2.04-6.08,5.27-7.27,9.16-1.26,4.11-.84,8.47,1.18,12.27,2.02,3.8,5.39,6.58,9.5,7.84,1.7,.52,3.43,.74,5.16,.69,.22-.67,.43-1.35,.64-2.03-1.73,.13-3.49-.05-5.21-.57Z" fill="#fff"/>
  <path d="M61.66,1445.91c1.05,.32,2.04,.77,2.97,1.31,.11-.7,.23-1.39,.34-2.1-.87-.45-1.77-.83-2.72-1.12-3.68-1.13-7.56-.9-11.06,.61l.94,1.77c3.02-1.26,6.36-1.43,9.53-.46Z" fill="#fff"/>
  <path d="M58.61,1473.45c-.21,.68-.42,1.36-.64,2.03,.34,0,.67-.02,1.01-.05,.22-.69,.44-1.4,.65-2.11-.34,.05-.68,.1-1.02,.12Z" fill="#fff"/>
  <path d="M65.47,1447.74c.12-.71,.23-1.42,.34-2.14-.28-.17-.55-.33-.84-.48-.11,.71-.23,1.4-.34,2.1,.28,.17,.57,.33,.84,.52Z" fill="#fff"/>
  <path d="M50.92,1446.94c.4-.21,.8-.4,1.21-.57l-.94-1.77c-.41,.18-.81,.36-1.21,.57-.2,.1-.38,.23-.57,.34l.94,1.77c.19-.11,.37-.24,.57-.34Z" fill="#fff"/>
  <path d="M69.7,1672.02l-16,64.15c.65,.14,1.3,.31,1.93,.52l16.03-64.31c-.44,0-.89-.04-1.34-.15-.22-.05-.43-.13-.63-.21Z" fill="#fff"/>
  <path d="M72.93,1661.82c-2.87-.72-5.79,1.03-6.5,3.91-.66,2.66,.78,5.34,3.27,6.3l1.37-5.49,1.94,.48-1.34,5.36c2.39-.02,4.56-1.63,5.16-4.06,.72-2.87-1.03-5.79-3.91-6.5Z" fill="#21e5ff"/>
  <path d="M71.07,1666.54l-1.37,5.49c.21,.08,.42,.15,.63,.21,.45,.11,.9,.16,1.34,.15l1.34-5.36-1.94-.48Z" fill="#21e5ff"/>
  <path d="M51.22,1754.18c.3,4.54,.53,9.1,.69,13.66,1.86-.26,3.67-.89,5.33-1.88,3.23-1.94,5.51-5.02,6.42-8.68s.34-7.45-1.6-10.68c-1.71-2.84-4.3-4.95-7.4-6.03l-3.4,13.62h-.05Z" fill="#fff"/>
  <path d="M52.74,1740.06c-.88-.18-1.76-.27-2.64-.28,.24,2.7,.47,5.41,.68,8.13l1.96-7.86Z" fill="#fff"/>
  <path d="M49.33,1753.71l.67-2.68c-.27-3.76-.57-7.51-.9-11.23-2.23,.14-4.41,.8-6.38,1.99-3.23,1.94-5.51,5.02-6.42,8.68-.91,3.65-.34,7.45,1.6,10.67,1.94,3.23,5.02,5.51,8.68,6.42,1.44,.36,2.91,.48,4.35,.39-.16-4.68-.4-9.35-.71-14.01l-.87-.22Z" fill="#fff"/>
  <path d="M50,1751.03l.78-3.11c-.21-2.72-.44-5.43-.68-8.13-.33,0-.67,0-1,.02,.33,3.72,.63,7.47,.9,11.23Z" fill="#fff"/>
  <path d="M50.21,1753.93c.31,4.66,.55,9.34,.71,14.01,.33-.02,.67-.05,1-.1-.16-4.56-.39-9.12-.69-13.66l-1.02-.25Z" fill="#fff"/>
  <path d="M51.22,1754.18h.05l3.4-13.61c-.42-.15-.84-.28-1.28-.39-.22-.05-.44-.09-.65-.13l-1.96,7.86c.16,2.08,.31,4.17,.45,6.27Z" fill="#fff"/>
  <path d="M50.21,1753.93c-.06-.97-.13-1.93-.2-2.9l-.67,2.68,.87,.22Z" fill="#fff"/>
  <path d="M51.22,1754.18c-.14-2.09-.29-4.18-.45-6.27l-.78,3.11c.07,.97,.14,1.93,.2,2.9l1.02,.25Z" fill="#fff"/>
  <path d="M53.22,1738.12l.48-1.94c-1.3-.27-2.63-.41-3.96-.39,.06,.66,.12,1.33,.18,2,1.1,0,2.2,.11,3.3,.34Z" fill="#fff"/>
  <path d="M46.08,1769.5c-4.17-1.04-7.69-3.64-9.91-7.33-2.22-3.69-2.86-8.02-1.82-12.19,1.04-4.17,3.64-7.69,7.33-9.91,2.23-1.34,4.7-2.1,7.23-2.26-.06-.66-.12-1.32-.18-1.98-2.77,.19-5.54,1-8.08,2.53-8.57,5.15-11.34,16.27-6.19,24.84,3.59,5.97,10.07,9.12,16.58,8.74-.02-.66-.03-1.33-.05-1.99-1.63,.1-3.28-.04-4.9-.45Z" fill="#fff"/>
  <path d="M63.78,1745.58c2.22,3.69,2.86,8.02,1.82,12.19-1.04,4.17-3.64,7.69-7.33,9.91-1.95,1.17-4.09,1.89-6.29,2.17,.02,.67,.04,1.33,.05,2,2.5-.28,4.97-1.08,7.26-2.46,8.57-5.15,11.34-16.27,6.19-24.84-2.33-3.87-5.88-6.55-9.86-7.86l-.48,1.94c3.61,1.22,6.64,3.64,8.63,6.94Z" fill="#fff"/>
  <path d="M49.92,1737.78c-.06-.66-.12-1.33-.18-2-.33,0-.67,.02-1,.04,.06,.66,.12,1.32,.18,1.98,.33-.02,.67-.02,1-.02Z" fill="#fff"/>
  <path d="M50.99,1769.94c.02,.66,.04,1.33,.05,1.99,.33-.02,.67-.05,1-.09-.02-.67-.03-1.33-.05-2-.33,.04-.66,.08-1,.1Z" fill="#fff"/>
  <path d="M53.22,1738.12c.22,.04,.44,.08,.65,.13,.44,.11,.86,.24,1.28,.39l.48-1.94c-.63-.21-1.28-.38-1.93-.52l-.48,1.94Z" fill="#fff"/>
  <path d="M46.57,1767.55c-3.65-.91-6.74-3.19-8.68-6.42-1.94-3.23-2.51-7.02-1.6-10.67,.91-3.66,3.19-6.74,6.42-8.68,1.97-1.18,4.15-1.85,6.38-1.99-.06-.66-.12-1.33-.18-1.99-2.53,.16-5,.92-7.23,2.26-3.69,2.22-6.29,5.73-7.33,9.91-1.04,4.17-.39,8.5,1.82,12.19,2.22,3.69,5.73,6.29,9.91,7.33,1.63,.41,3.28,.55,4.9,.45-.02-.67-.05-1.33-.07-2-1.44,.09-2.91-.03-4.35-.39Z" fill="#fff"/>
  <path d="M50.1,1739.78c.88,0,1.76,.1,2.64,.28l.48-1.94c-1.1-.23-2.2-.34-3.3-.34,.06,.67,.12,1.33,.18,2Z" fill="#fff"/>
  <path d="M62.07,1746.61c1.94,3.23,2.51,7.02,1.6,10.68s-3.19,6.74-6.42,8.68c-1.66,1-3.47,1.62-5.33,1.88,.02,.67,.05,1.33,.07,2,2.2-.28,4.33-.99,6.29-2.17,3.69-2.22,6.29-5.73,7.33-9.91,1.04-4.17,.39-8.5-1.82-12.19-1.98-3.3-5.02-5.73-8.63-6.94l-.48,1.94c3.09,1.08,5.69,3.19,7.4,6.03Z" fill="#fff"/>
  <path d="M50.1,1739.78c-.06-.67-.12-1.33-.18-2-.33,0-.67,0-1,.02,.06,.66,.12,1.33,.18,1.99,.33-.02,.67-.02,1-.02Z" fill="#fff"/>
  <path d="M50.92,1767.94c.02,.67,.05,1.33,.07,2,.33-.02,.67-.06,1-.1-.02-.67-.05-1.33-.07-2-.33,.05-.66,.08-1,.1Z" fill="#fff"/>
  <path d="M53.39,1740.19c.44,.11,.86,.24,1.28,.39l.48-1.94c-.42-.14-.84-.28-1.28-.39-.22-.05-.44-.08-.65-.13l-.48,1.94c.22,.04,.44,.08,.65,.13Z" fill="#fff"/>
</svg>