<?xml version="1.0" encoding="UTF-8"?>
<svg id="uuid-a2cb7ef4-8572-4a3a-85ee-d7d2bb99dd0b" data-name="Layer 1" xmlns="http://www.w3.org/2000/svg" width="1425" height="984.66" viewBox="0 0 1425 984.66">
  <path d="M274.25,882.31l1.37,39.26c14.3,.2,26.07,11.6,26.58,26.05,.15,4.28-.71,8.36-2.36,12.02,16.41,7.45,33.76,12.88,51.95,16.2,21.94,4,44.73,4.82,67.68,2.54-32.59-8.35-64.78-24.93-96.02-49.5-17.06-13.42-33.48-28.97-49.19-46.57Z" fill="none"/>
  <path d="M618.65,385.05c.44-.33,.89-.66,1.33-.98-.11-.21-.21-.42-.32-.64-8.19,6.24-15.59,13.64-22.1,22.01,6.29-7.7,13.34-14.55,21.08-20.39Z" fill="none"/>
  <path d="M528.13,970.82c26.14-9.78,50.02-25.92,70.99-47.96,17.18-22.23,18.59-62.33,17.06-97.41-3.45,35.61-15.54,58.83-26.53,73.01l-.06,.08c-28.49,29.97-65.55,53.46-107.18,67.92-15.94,5.54-32.12,9.56-48.29,12.08,4.02,.73,8.05,1.35,12.07,1.83,28.4,3.39,55.98,.18,81.94-9.54Z" fill="none"/>
  <path d="M582.68,575.53c-6.22-15.86-12.23-31.22-15.76-47.12,2.27,23.15,8.06,48.08,17.57,76.06,2.31,6.81,4.81,13.71,7.22,20.38,4.87,13.47,9.84,27.21,13.69,41.24-2.53-21.76-6.04-44.19-12.66-63.67-3.12-9.17-6.65-18.18-10.06-26.89Z" fill="none"/>
  <path d="M1257.23,604.21l-19.77-1.38c-1.77,14.12-14.3,24.56-28.67,23.56-2.1-.15-4.13-.54-6.07-1.13-13.56,27.47-30.81,50.77-51.05,68.7-8.38,7.42-17.18,13.86-26.37,19.33,15.63-7.78,31.78-17.45,48.54-29.06,34.68-24.01,63.43-51.63,83.39-80.02Z" fill="none"/>
  <path d="M1198,348.47c-8.57-11.22-18.5-19.9-29.57-25.71-.86-.45-1.7-.9-2.56-1.35,1.33,1.11,2.65,2.21,3.98,3.31,9.55,7.89,18.98,15.77,28.15,23.75Z" fill="none"/>
  <path d="M1290.08,494.99c-3.15-31.64-17.21-62.16-42.98-93.28-11.23-13.56-23.81-26.27-37.2-38.58,9.22,16.6,16.22,36.82,20.59,60.02,8.86,47.09,5.76,102.29-8.48,151.8,9.73,4.51,16.2,14.59,15.61,25.89l20.95,1.47c.11-.17,.24-.33,.35-.5,24.2-35.35,34.68-71.29,31.15-106.81Z" fill="none"/>
  <path d="M591.71,775.25c-3.4,4.08-7.26,7.85-11.67,11.17-1,.75-2.02,1.47-3.07,2.16,.61-.12,1.21-.23,1.83-.36,4.98-3.79,9.26-8.18,12.9-12.97Z" fill="none"/>
  <path d="M878.52,672.03c27.38,36.18,74.03,57.41,142.61,64.89,14.09,1.21,28.56,.41,43.5-2.41-13.97,1.96-28.57,2.27-43.76,.89-42.85-3.67-86-26.91-118.39-63.76-23.92-27.22-42.94-62.31-56.65-104.47,.6,3.94,1.14,8.17,1.72,12.68,3.35,26.06,7.94,61.75,30.97,92.18Z" fill="none"/>
  <path d="M801.88,374.62c-18.02-19.76-49.12-28.1-87.57-23.48-12.37,1.49-25.07,4.32-37.4,8.23,38.85-3.97,80.22,9.73,107.17,39.35,29.14,32.02,39.76,75.54,50.03,117.63,.16,.64,.31,1.28,.47,1.92-.59-8.12-.91-16.46-1.24-24.98-1.54-39.8-3.13-80.95-31.45-118.67Z" fill="none"/>
  <path d="M507.21,788.78c-15.85-5.96-28.73-15.96-38.31-29.73-11.06-15.91-14.64-32.86-13.89-39-2.14,4.14-3.68,8.54-4.59,13.14-5.26,29.05,22.72,54.73,52.8,62.76,20.8,5.55,41.67,4.71,58.91-1.95-20.76,2.42-39.18,.69-54.92-5.23Z" fill="none"/>
  <path d="M1052.18,153.15c-.86-45.47,25.33-90,64.01-113.55-.29-.55-.56-1.1-.81-1.66-.22-.5-.42-1.01-.61-1.52-5,2.11-10.31,4.49-15.8,7.18-14.64,7.15-30.55,16.38-45.14,27.96-33.35,26.48-48.9,56.4-46.21,88.92,9.1,60.08,39.9,94.15,138.76,148.21-50.49-44.42-93.03-94.26-94.19-155.54Z" fill="none"/>
  <path d="M558.44,697.75c-11.39-6.04-24.7-9.18-38.13-9.18-5.69,0-11.41,.56-17.01,1.71-19.59,4.01-35.65,14.48-45.2,29.5-1.04,2.13,1.19,22.27,15.91,41.13,14.51,18.59,43.1,38.13,97.47,28.71,2.57-1.45,5.03-3.05,7.36-4.8,12.18-9.18,20.23-21.8,25.13-35.49-9.66-22.58-25.54-40.99-45.53-51.58Z" fill="none"/>
  <path d="M559.84,695.1c11.17,5.92,21.09,14.2,29.42,24.23-8.51-10.87-18.84-19.79-30.6-26.02-11.46-6.07-24.85-9.23-38.37-9.23-5.73,0-11.47,.57-17.11,1.72-17.96,3.67-32.95,12.76-42.76,25.77,22.27-26.52,65.75-34.31,99.41-16.47Z" fill="none"/>
  <path d="M212.5,790.47l-2.6,1.5c19.18,33.3,40.01,62.7,62.26,87.98l-.17-4.75c-21.21-24.5-41.11-52.81-59.5-84.73Z" fill="#00108b"/>
  <path d="M616.17,825.45c1.54,35.08,.13,75.19-17.06,97.41-20.97,22.05-44.85,38.19-70.99,47.96-25.97,9.71-53.54,12.92-81.94,9.54-4.03-.48-8.05-1.09-12.07-1.83-2.98,.46-5.96,.87-8.94,1.23,6.87,1.56,13.76,2.75,20.66,3.58,7.43,.88,14.8,1.33,22.1,1.33,21.1,0,41.63-3.69,61.25-11.03,26.59-9.95,50.87-26.35,72.17-48.76l.1-.11c23.04-29.71,18.75-89.37,15.91-128.85l-.34-4.79c-.22-3.05-.55-6.06-.96-9.04,.18,1.68,.34,3.37,.46,5.08,1,14.12,.78,26.84-.33,38.29Z" fill="#00108b"/>
  <path d="M676.91,359.36c12.33-3.9,25.03-6.74,37.4-8.23,38.45-4.62,69.55,3.72,87.57,23.48,28.32,37.71,29.91,78.87,31.45,118.67,.33,8.53,.66,16.87,1.24,24.98,1.84,7.53,3.72,15.21,5.72,22.79-2.68-14.98-3.31-31.07-3.96-47.89-1.56-40.28-3.17-81.93-32.09-120.41l-.09-.11c-18.69-20.54-50.72-29.24-90.2-24.49-15.26,1.83-31.03,5.7-46.01,11.07,.22,.42,.42,.84,.62,1.26,2.77-.47,5.55-.85,8.35-1.13Z" fill="#00108b"/>
  <path d="M618.65,385.05c-7.74,5.84-14.79,12.69-21.08,20.39-16.91,21.73-27.79,49.94-30.82,81.05-1.31,13.48-1.27,27.35,.17,41.92,3.52,15.9,9.54,31.26,15.76,47.12,3.41,8.71,6.94,17.72,10.06,26.89,6.62,19.49,10.13,41.91,12.66,63.67,2.87,10.44,5.12,21.03,6.24,31.8,1.55,14.86,.55,32.2-4.55,48.42,.34,.83,.65,1.68,.97,2.52,4.69-15.81,5.59-32.57,4.09-46.99-.41-3.93-.81-7.93-1.22-11.98-2.87-28.72-6.13-61.26-15.35-88.39-3.14-9.23-6.68-18.28-10.11-27.02-10.87-27.72-21.13-53.91-18.22-83.9,4.19-43.18,23.59-80.76,53.2-103.09,.35-.26,.7-.52,1.05-.78-.56-.84-1.07-1.71-1.53-2.6-.45,.33-.9,.65-1.33,.98Z" fill="#00108b"/>
  <path d="M565.1,483.22c-.32,2.32-.6,4.66-.83,7.02-.48,4.93-.61,9.75-.45,14.49,.05-6.24,.36-12.38,.95-18.44,.1-1.03,.22-2.05,.33-3.07Z" fill="#00108b"/>
  <path d="M606.11,749.25c-3.27,9.37-7.98,18.27-14.4,26-3.65,4.79-7.92,9.18-12.9,12.97-.62,.13-1.22,.24-1.83,.36-2.45,1.64-5.02,3.12-7.7,4.46,3.43-.54,6.93-1.19,10.48-1.95l.32-.07,.26-.2c12.45-9.38,20.71-22.21,25.78-36.12,4.26,11.41,6.98,23.77,7.89,36.63l.34,4.79c.25,3.51,.52,7.19,.77,10.99,.06-6.28-.13-12.88-.62-19.82-.95-13.39-3.85-26.24-8.4-38.04Z" fill="#00108b"/>
  <path d="M559.84,695.1c-33.67-17.84-77.14-10.05-99.41,16.47-.97,1.28-1.9,2.59-2.76,3.94-.97,1.47-1.85,2.99-2.65,4.54-.75,6.14,2.83,23.09,13.89,39,9.57,13.77,22.46,23.77,38.31,29.73,15.74,5.92,34.16,7.65,54.92,5.23,3.25-1.26,6.38-2.72,9.34-4.39-54.38,9.43-82.96-10.12-97.47-28.71-14.72-18.86-16.96-39-15.91-41.13,9.56-15.01,25.61-25.49,45.2-29.5,5.6-1.15,11.32-1.71,17.01-1.71,13.44,0,26.74,3.14,38.13,9.18,19.99,10.59,35.87,29,45.53,51.58,.35-.97,.68-1.95,1-2.94-4.1-9.9-9.4-19.01-15.7-27.06-8.33-10.04-18.25-18.31-29.42-24.23Z" fill="#00108b"/>
  <path d="M323.44,928.88c31.23,24.57,63.43,41.15,96.02,49.5,2.93-.29,5.85-.63,8.78-1.02-34.92-7.46-69.47-24.51-102.95-50.84-17.79-14-34.89-30.35-51.21-48.93l.16,4.72c15.72,17.6,32.14,33.15,49.19,46.57Z" fill="#00108b"/>
  <path d="M1169.85,324.72c-1.33-1.1-2.66-2.2-3.98-3.31-4.28-2.26-8.46-4.48-12.52-6.66,4.82,4.14,9.69,8.23,14.6,12.28,12.67,10.47,25.13,20.9,37.01,31.59-2.21-3.58-4.52-6.97-6.96-10.15-9.17-7.98-18.59-15.86-28.15-23.75Z" fill="#00108b"/>
  <path d="M609.65,698.09c-.57-5.5-1.46-10.95-2.56-16.37,.29,2.84,.57,5.65,.85,8.43,.41,4.06,.81,8.06,1.22,12,.85,8.12,.91,16.99-.05,26,1.46-10.39,1.52-20.72,.54-30.05Z" fill="#00108b"/>
  <path d="M1173.84,684.23c-16.76,11.6-32.91,21.27-48.54,29.06-18.62,11.09-38.88,18.18-60.66,21.23-14.94,2.81-29.41,3.61-43.5,2.41-68.58-7.48-115.23-28.71-142.61-64.89-23.03-30.43-27.62-66.12-30.97-92.18-.58-4.51-1.13-8.73-1.72-12.68-1.81-5.57-3.53-11.25-5.16-17.06-1.67-5.99-3.26-12.1-4.79-18.22,.95,7.7,2.3,15.16,4.32,22.35,1.94,6.92,3.07,15.76,4.39,25.99,6.85,53.27,18.31,142.44,176.26,159.67,4.34,.37,8.71,.56,13.12,.56,42.99,0,89.47-17.68,141.58-53.77,35.56-24.63,64.98-53.05,85.18-82.24l-3.5-.24c-19.96,28.38-48.72,56-83.39,80.02Z" fill="#00108b"/>
  <path d="M1052.18,153.15c1.16,61.27,43.7,111.12,94.19,155.54,3.97,2.17,8.04,4.37,12.24,6.61-54.33-46.19-102.22-97.97-103.43-162.21-.84-44.42,24.75-87.94,62.55-110.93-.57-.83-1.08-1.69-1.54-2.56-38.68,23.54-64.87,68.08-64.01,113.55Z" fill="#00108b"/>
  <path d="M1247.11,401.71c25.77,31.13,39.83,61.64,42.98,93.28,3.53,35.52-6.95,71.46-31.15,106.81-.11,.17-.24,.33-.35,.5l3.47,.24c24.15-35.65,34.59-71.93,31.02-107.85-3.21-32.26-17.49-63.3-43.65-94.9-13.39-16.17-28.66-31.11-44.92-45.6,1.88,2.85,3.69,5.82,5.41,8.93,13.39,12.31,25.97,25.02,37.2,38.58Z" fill="#00108b"/>
  <path d="M645.5,246.08c3.7-.7,6.5-3.95,6.5-7.85,0-4.42-3.58-8-8-8s-8,3.58-8,8,3.32,7.72,7.5,7.97c.17,.01,.33,.03,.5,.03,.51,0,1.01-.05,1.5-.15Z" fill="#21e5ff"/>
  <path d="M266.04,647.12c3.67-.83,6.36-4.17,6.22-8.08-.15-4.42-3.86-7.87-8.27-7.72s-7.87,3.86-7.72,8.27c.15,4.25,3.58,7.59,7.77,7.71,.17,0,.33,.01,.5,0,.51-.02,1.01-.09,1.49-.2Z" fill="#21e5ff"/>
  <path d="M1335.37,608.17c.01-.17,.04-.33,.06-.5l-73.38-5.13-3.47-.24-20.95-1.47c.58-11.3-5.88-21.38-15.61-25.89,14.24-49.51,17.34-104.71,8.48-151.8-4.37-23.2-11.36-43.42-20.59-60.02-1.73-3.11-3.53-6.08-5.41-8.93-9.79-14.83-21.62-26.12-35.14-33.21-3.66-1.92-7.24-3.82-10.75-5.69-4.2-2.24-8.26-4.44-12.24-6.61-98.86-54.06-129.66-88.13-138.76-148.21-2.69-32.52,12.86-62.44,46.21-88.92,14.58-11.58,30.49-20.81,45.14-27.96,5.49-2.68,10.81-5.07,15.8-7.18,.19,.51,.39,1.02,.61,1.52,.25,.56,.52,1.11,.81,1.66,.46,.88,.98,1.73,1.54,2.56,.86,1.26,1.82,2.46,2.92,3.6,8.26,8.54,20.78,10.46,30.96,5.64,.4-.19,.79-.38,1.17-.59,1.74-.93,3.39-2.05,4.94-3.39l68.24,70.6c.29-.4,.61-.79,.98-1.15,.12-.12,.25-.22,.38-.33l-68.14-70.49c10.37-10.4,10.54-27.22,.3-37.82-10.36-10.72-27.46-11.01-38.18-.65-7.41,7.16-9.83,17.54-7.21,26.8,.01,.04,.03,.09,.04,.13-8.68,3.65-18.31,8.15-28.19,13.56-11.16,6.11-22.62,13.38-33.37,21.91-33.91,26.92-49.71,57.42-46.95,90.72,9.47,62.48,41.88,97.07,147.72,154.03,4.06,2.19,8.24,4.41,12.52,6.66,.85,.45,1.7,.9,2.56,1.35,11.07,5.81,21,14.5,29.57,25.71,2.43,3.18,4.75,6.57,6.96,10.15,10.71,17.35,18.75,39.28,23.57,64.89,8.79,46.72,5.73,101.49-8.37,150.65-2.38-.89-4.93-1.47-7.6-1.65-14.88-1.04-27.78,10.18-28.82,25.05-.84,12.07,6.38,22.84,17.08,27.03-13.43,27.14-30.48,50.16-50.47,67.86-35.8,31.71-79.29,45.49-129.29,40.96-42.34-3.62-85.01-26.62-117.07-63.09-26.88-30.59-47.53-71.21-61.38-120.75-.79-2.81-1.55-5.66-2.31-8.52-1.99-7.58-3.88-15.25-5.72-22.79-.16-.64-.32-1.29-.47-1.92-10.27-42.09-20.89-85.61-50.03-117.63-26.95-29.62-68.32-43.32-107.17-39.35-2.8,.29-5.58,.66-8.35,1.13-.19-.43-.4-.85-.62-1.26-1.24-2.38-2.86-4.61-4.85-6.6-4.89-4.89-11.19-7.51-17.59-7.86v-98.69c-.49,.09-.99,.15-1.5,.15-.17,0-.33-.01-.5-.03v98.54c-6.74,.12-13.45,2.75-18.59,7.9-7.81,7.81-9.83,19.22-6.06,28.9-29.41,22.23-48.89,59.15-53.75,101.69-.12,1.02-.23,2.04-.33,3.07-.59,6.06-.9,12.2-.95,18.44-.22,30,5.88,62.41,18.78,100.38,2.32,6.82,4.82,13.74,7.24,20.42,6.6,18.25,13.36,36.98,17.26,56.19,1.1,5.42,1.99,10.88,2.56,16.37,.98,9.33,.92,19.66-.54,30.05-.72,5.12-1.78,10.25-3.23,15.28-9.92-22.68-26.05-41.17-46.27-51.88-16.72-8.86-37.43-11.67-56.82-7.71-20.26,4.14-36.89,15.01-46.8,30.59-3.69,5.61-6.22,11.8-7.53,18.4-5.47,30.2,23.29,56.8,54.25,65.06,23.86,6.37,47.84,4.48,66.57-4.85,2.68-1.33,5.25-2.82,7.7-4.46,1.04-.7,2.07-1.41,3.07-2.16,4.41-3.32,8.27-7.08,11.67-11.17,6.43-7.73,11.13-16.63,14.4-26,4.56,11.81,7.45,24.65,8.4,38.04,.49,6.95,.68,13.55,.62,19.82-.45,45.57-14.47,73.84-27.04,90.07-28.26,29.73-65.04,53.03-106.35,67.38-17.65,6.13-35.59,10.41-53.5,12.8-2.93,.39-5.86,.73-8.78,1.02-22.94,2.28-45.74,1.46-67.68-2.54-18.19-3.31-35.54-8.74-51.95-16.2,1.65-3.66,2.51-7.74,2.36-12.02-.5-14.45-12.28-25.85-26.58-26.05l-1.37-39.26-.16-4.72-8.05-230.47c-.48,.11-.98,.18-1.49,.2-.17,0-.33,0-.5,0l7.96,227.89,.17,4.75,1.46,41.68c-7.9,.46-14.84,4.3-19.47,10.06-1.29-1.02-2.58-2.03-3.85-3.08-32.76-27.1-59.28-64.3-78.83-110.58l-1.84,.78c19.67,46.58,46.38,84.04,79.4,111.34,1.29,1.07,2.61,2.1,3.92,3.14-3.17,4.6-4.94,10.22-4.73,16.23,.52,14.9,13.02,26.56,27.93,26.04,9.91-.35,18.38-5.99,22.79-14.11,16.58,7.54,34.1,13.02,52.48,16.37,14.04,2.56,28.43,3.83,42.98,3.83,10.19,0,20.47-.64,30.76-1.88,2.98-.36,5.96-.77,8.94-1.23,16.18-2.51,32.36-6.54,48.29-12.08,41.63-14.46,78.69-37.95,107.18-67.92l.06-.08c10.99-14.17,23.08-37.39,26.53-73.01,1.11-11.45,1.33-24.17,.33-38.29-.12-1.7-.28-3.39-.46-5.08-1.26-11.66-4-22.85-7.99-33.26-.32-.84-.63-1.69-.97-2.52,5.1-16.21,6.1-33.56,4.55-48.42-1.12-10.76-3.38-21.36-6.24-31.8-3.85-14.02-8.81-27.76-13.69-41.24-2.41-6.67-4.91-13.58-7.22-20.38-9.51-27.98-15.29-52.91-17.57-76.06-1.43-14.57-1.47-28.44-.17-41.92,3.02-31.11,13.91-59.32,30.82-81.05,6.51-8.37,13.91-15.77,22.1-22.01,.1,.21,.21,.43,.32,.64,.46,.89,.96,1.76,1.53,2.6,.98,1.46,2.11,2.86,3.4,4.15,10.54,10.54,27.64,10.54,38.18,0,7.69-7.69,9.76-18.86,6.24-28.43,40.39-6.73,84.93,6.54,113.27,37.68,28.79,31.64,39.35,74.91,49.57,116.76,1.21,4.97,2.45,10.02,3.72,15.07,1.54,6.12,3.12,12.23,4.79,18.22,1.62,5.81,3.35,11.5,5.16,17.06,13.71,42.16,32.73,77.25,56.65,104.47,32.39,36.86,75.55,60.1,118.39,63.76,15.19,1.37,29.78,1.06,43.76-.89,21.78-3.05,42.04-10.14,60.66-21.23,9.19-5.47,17.99-11.91,26.37-19.33,20.24-17.93,37.5-41.23,51.05-68.7,1.93,.59,3.96,.99,6.07,1.13,14.37,1.01,26.9-9.43,28.67-23.56l19.77,1.38,3.5,.24,74.68,5.22c-.06-.49-.08-.99-.04-1.51Zm-731.4,141.16c-4.9,13.69-12.94,26.31-25.13,35.49-2.32,1.75-4.79,3.35-7.36,4.8-2.97,1.67-6.09,3.13-9.34,4.39-17.23,6.66-38.1,7.5-58.91,1.95-30.09-8.03-58.06-33.71-52.8-62.76,.91-4.61,2.45-9,4.59-13.14,.8-1.55,1.68-3.07,2.65-4.54,.86-1.36,1.8-2.66,2.76-3.94,9.81-13.01,24.8-22.1,42.76-25.77,5.64-1.15,11.38-1.72,17.11-1.72,13.52,0,26.91,3.16,38.37,9.23,11.75,6.23,22.09,15.15,30.6,26.02,6.3,8.05,11.6,17.16,15.7,27.06-.32,.98-.65,1.96-1,2.94Zm-309.58,207.74c-.27,.61-.57,1.21-.9,1.79-3.48,6.16-9.97,10.43-17.54,10.7-11.57,.4-21.32-8.68-21.72-20.25-.16-4.55,1.17-8.81,3.52-12.34,.37-.56,.77-1.09,1.19-1.61,3.57-4.39,8.87-7.32,14.9-7.72,.22-.01,.43-.05,.65-.06,.46-.02,.9,0,1.35,.02,10.97,.32,19.98,9.12,20.37,20.23,.11,3.29-.56,6.42-1.81,9.24ZM658.85,386.57c-8.19,8.19-21.51,8.19-29.7,0-1.05-1.05-1.96-2.18-2.73-3.37-.56-.85-1.02-1.74-1.44-2.65-.11-.24-.23-.47-.33-.71-.27-.63-.5-1.28-.7-1.93-2.21-7.2-.48-15.35,5.2-21.04,3.97-3.97,9.14-5.99,14.35-6.12,.67-.02,1.33,0,2,.05,4.87,.35,9.64,2.36,13.35,6.07,1.37,1.37,2.49,2.89,3.4,4.49,.06,.11,.13,.22,.19,.33,.33,.6,.62,1.22,.89,1.84,.08,.18,.15,.36,.22,.54,2.94,7.53,1.38,16.43-4.7,22.5Z" fill="#fff"/>
  <path d="M1343.91,600.75c-.6-.04-1.18-.01-1.74,.07-.44,.07-.86,.17-1.27,.3-2.86,.93-5.05,3.43-5.46,6.55-.02,.16-.05,.33-.06,.5-.04,.51-.02,1.02,.04,1.51,.44,3.74,3.49,6.76,7.38,7.03,1.16,.08,2.28-.1,3.3-.47,.41-.15,.81-.33,1.19-.55,2.26-1.28,3.85-3.62,4.05-6.41,.31-4.41-3.02-8.23-7.42-8.54Z" fill="#21e5ff"/>
  <path d="M1225.96,118.02c-2.17,3.08-1.93,7.36,.79,10.17,3.07,3.18,8.14,3.26,11.31,.19,3.18-3.07,3.26-8.14,.19-11.31-2.95-3.06-7.75-3.24-10.94-.52-.13,.11-.26,.21-.38,.33-.37,.36-.69,.74-.98,1.15Z" fill="#21e5ff"/>
  <path d="M663.32,363.53c-.26-.62-.56-1.24-.89-1.84-.06-.11-.13-.22-.19-.33-.91-1.61-2.03-3.13-3.4-4.49-3.71-3.71-8.48-5.72-13.35-6.07-.67-.05-1.33-.06-2-.05-5.21,.12-10.38,2.15-14.35,6.12-5.68,5.68-7.41,13.84-5.2,21.04,.2,.65,.43,1.3,.7,1.93,.1,.24,.22,.47,.33,.71,.42,.91,.89,1.8,1.44,2.65,.78,1.19,1.69,2.32,2.73,3.37,8.19,8.19,21.51,8.19,29.7,0,6.07-6.07,7.63-14.97,4.7-22.5-.07-.18-.14-.36-.22-.54Z" fill="#ffb300"/>
  <path d="M275.83,927.6c-.45-.01-.9-.04-1.35-.02-.22,0-.43,.04-.65,.06-6.03,.4-11.33,3.33-14.9,7.72-.42,.52-.82,1.05-1.19,1.61-2.35,3.53-3.68,7.79-3.52,12.34,.4,11.57,10.15,20.66,21.72,20.25,7.57-.26,14.06-4.54,17.54-10.7,.33-.58,.63-1.18,.9-1.79,1.26-2.82,1.93-5.95,1.81-9.24-.39-11.12-9.4-19.91-20.37-20.23Z" fill="#150352"/>
  <circle cx="850" cy="797.22" r="8" fill="#21e5ff"/>
  <circle cx="4" cy="434.22" r="4" fill="#21e5ff"/>
  <circle cx="162" cy="954.22" r="4" fill="#21e5ff"/>
  <circle cx="953" cy="430.22" r="4" fill="#21e5ff"/>
  <circle cx="1421" cy="313.22" r="4" fill="#21e5ff"/>
</svg>