<svg width="37" height="37" viewBox="0 0 37 37" fill="none" xmlns="http://www.w3.org/2000/svg">
<g clip-path="url(#clip0_2_201)">
<path d="M37.0001 3.56863C35.5444 4.19473 34.0885 4.58573 32.6335 4.74279C34.2769 3.75677 35.3885 2.36379 35.9676 0.563935C34.4643 1.45589 32.8604 2.06612 31.1545 2.39496C29.6518 0.798538 27.8053 0 25.6136 0C23.5165 0 21.7285 0.739414 20.2489 2.21857C18.77 3.69765 18.0305 5.48566 18.0305 7.58286C18.0305 8.14622 18.093 8.72553 18.2184 9.32022C15.1193 9.16374 12.2121 8.3851 9.49636 6.98431C6.78079 5.58335 4.47612 3.71689 2.58236 1.38492C1.89368 2.55851 1.54922 3.83431 1.54922 5.21159C1.54922 6.51066 1.85437 7.71599 2.4651 8.82725C3.07541 9.93835 3.8973 10.8382 4.93036 11.527C3.70932 11.4799 2.56682 11.159 1.50268 10.5642V10.6581C1.50268 12.4895 2.07788 14.0973 3.22811 15.4829C4.37851 16.8683 5.83029 17.7404 7.58311 18.1005C6.92568 18.2725 6.26035 18.3586 5.58746 18.3586C5.14918 18.3586 4.67175 18.3195 4.15534 18.2418C4.6405 19.7597 5.5327 21.0074 6.83161 21.9861C8.13076 22.9644 9.60203 23.4686 11.2455 23.5007C8.49093 25.6602 5.35286 26.74 1.83127 26.74C1.15813 26.74 0.5479 26.7093 0 26.6463C3.52168 28.9155 7.40319 30.0501 11.6448 30.0501C14.3368 30.0501 16.8646 29.6241 19.2272 28.7709C21.591 27.9182 23.6099 26.7754 25.2847 25.343C26.9591 23.911 28.4033 22.2637 29.6161 20.4012C30.829 18.5386 31.7326 16.5941 32.3278 14.5673C32.9224 12.5401 33.2199 10.5098 33.2199 8.47473C33.2199 8.03644 33.212 7.70793 33.1963 7.48871C34.6836 6.40927 35.9513 5.10214 37.0001 3.56863Z" fill="white"/>
</g>
<defs>
<clipPath id="clip0_2_201">
<rect width="37" height="37" fill="white"/>
</clipPath>
</defs>
</svg>
