<svg width="62" height="62" viewBox="0 0 62 62" fill="none" xmlns="http://www.w3.org/2000/svg">
<g clip-path="url(#clip0_2_271)">
<path d="M61.9999 11.8026C59.5607 12.8518 57.121 13.507 54.6829 13.7701C57.4367 12.1179 59.2993 9.7837 60.2698 6.76773C57.7508 8.26235 55.0631 9.2849 52.2046 9.83592C49.6866 7.16085 46.5924 5.82275 42.9198 5.82275C39.4058 5.82275 36.4097 7.06177 33.9303 9.54036C31.4523 12.0188 30.2131 15.0149 30.2131 18.5292C30.2131 19.4732 30.3178 20.4439 30.5278 21.4404C25.3347 21.1782 20.4633 19.8735 15.9126 17.5262C11.3622 15.1786 7.50028 12.0511 4.32695 8.14343C3.17295 10.11 2.59574 12.2478 2.59574 14.5557C2.59574 16.7325 3.10709 18.7523 4.13046 20.6144C5.15315 22.4762 6.53037 23.9841 8.26144 25.1382C6.21538 25.0594 4.30091 24.5216 2.51775 23.5249V23.6823C2.51775 26.751 3.4816 29.4453 5.40903 31.7671C7.33673 34.0886 9.76943 35.5498 12.7066 36.1534C11.6049 36.4415 10.4901 36.5857 9.36253 36.5857C8.62811 36.5857 7.82809 36.5203 6.96276 36.3901C7.77573 38.9336 9.27076 41.0244 11.4473 42.6644C13.6243 44.3036 16.0896 45.1485 18.8435 45.2022C14.2278 48.8209 8.96941 50.6303 3.06837 50.6303C1.94041 50.6303 0.917859 50.5789 -0.000244141 50.4733C5.90094 54.2758 12.4051 56.177 19.5126 56.177C24.0237 56.177 28.2594 55.4631 32.2184 54.0334C36.1793 52.6047 39.5622 50.6896 42.3688 48.2895C45.1745 45.8898 47.5945 43.1295 49.6268 40.0086C51.6592 36.8875 53.1733 33.6292 54.1707 30.2329C55.167 26.8359 55.6655 23.4337 55.6655 20.0237C55.6655 19.2892 55.6523 18.7388 55.6259 18.3714C58.1182 16.5626 60.2425 14.3723 61.9999 11.8026Z" fill="white"/>
</g>
<defs>
<clipPath id="clip0_2_271">
<rect width="62" height="62" fill="white"/>
</clipPath>
</defs>
</svg>
