<svg width="109" height="89" viewBox="0 0 109 89" fill="none" xmlns="http://www.w3.org/2000/svg">
<path d="M109 10.513C104.712 12.3574 100.423 13.5093 96.1365 13.972C100.978 11.0672 104.252 6.9636 105.959 1.66132C101.53 4.28896 96.8049 6.08667 91.7795 7.05541C87.3527 2.35245 81.9128 0 75.4562 0C69.2785 0 64.0111 2.17827 59.6521 6.53579C55.2955 10.8931 53.117 16.1605 53.117 22.3387C53.117 23.9983 53.3011 25.705 53.6703 27.4569C44.5405 26.9959 35.9762 24.7021 27.9758 20.5754C19.9758 16.4483 13.1864 10.9498 7.60749 4.07991C5.57868 7.53724 4.56391 11.2957 4.56391 15.3531C4.56391 19.1801 5.46289 22.7309 7.26205 26.0046C9.06 29.2778 11.4812 31.9287 14.5246 33.9578C10.9275 33.8192 7.56171 32.8737 4.4268 31.1216V31.3982C4.4268 36.7933 6.12131 41.5299 9.50985 45.6118C12.8989 49.6931 17.1757 52.2621 22.3394 53.3232C20.4027 53.8297 18.4427 54.0833 16.4604 54.0833C15.1692 54.0833 13.7627 53.9683 12.2414 53.7393C13.6707 58.211 16.299 61.8868 20.1255 64.77C23.9528 67.6518 28.2871 69.1372 33.1286 69.2317C25.0138 75.5936 15.7692 78.7745 5.39482 78.7745C3.41179 78.7745 1.61408 78.6841 0 78.4986C10.3747 85.1836 21.8094 88.5261 34.3049 88.5261C42.2356 88.5261 49.6822 87.271 56.6424 84.7575C63.606 82.2456 69.5534 78.8789 74.4875 74.6592C79.4201 70.4405 83.6746 65.5876 87.2475 60.101C90.8207 54.6138 93.4825 48.8855 95.2361 42.9146C96.9875 36.9425 97.864 30.9612 97.864 24.9661C97.864 23.6749 97.8407 22.7072 97.7944 22.0613C102.176 18.8814 105.911 15.0306 109 10.513Z" fill="#1427B3"/>
</svg>
